<svg xmlns="http://www.w3.org/2000/svg" width="103.945" height="103.945" viewBox="0 0 103.945 103.945">
  <g id="Avatar_Icon" data-name="Avatar Icon" transform="translate(-232 -32)">
    <circle id="IconBg" cx="51.973" cy="51.973" r="51.973" transform="translate(232 32)" fill="#527974" opacity="0.5"/>
    <g id="Avatar">
      <path id="Path_374" data-name="Path 374" d="M487.424,298.1c-2.319-2.866-17.771-7.114-18.37-7.583l-.313-.313c-.625,2.4-2.632,6.723-9.224,8.208-6.592-1.459-8.625-5.785-9.224-8.208l-.313.313c-.6.469-16.051,4.742-18.371,7.583-4.065,5-2.163,18.631-2.606,25.666h61.078C489.587,316.726,491.489,303.124,487.424,298.1Z" transform="translate(-175.579 -202.273)" fill="#fff"/>
      <path id="Path_375" data-name="Path 375" d="M527.177,266.5c-1.772,1.954-4.169,3.648-6.931,3.648h0c-2.762,0-5.133-1.668-6.905-3.622v4.716a12.421,12.421,0,0,1-2.241,1.433v.261c.7,2.449,2.658,7.947,9.146,7.947,6.514,0,8.469-5.5,9.146-7.947v-.261a12.419,12.419,0,0,1-2.241-1.433V266.5Z" transform="translate(-236.335 -184.749)" fill="#eb9257"/>
      <path id="Path_376" data-name="Path 376" d="M573.843,298.1c-2.319-2.866-17.771-7.114-18.37-7.583l-.313-.313c-.313,1.225-1.433,2.606-2.423,4.482-4.3,8.286-7.557,23.79-6.827,29.08h30.539C576.005,316.726,577.908,303.124,573.843,298.1Z" transform="translate(-261.998 -202.273)" fill="#f4b251"/>
      <path id="Path_377" data-name="Path 377" d="M450.192,290.2l-.313.313c-.6.469-16.051,4.742-18.37,7.583-4.065,5-2.163,18.631-2.606,25.666h30.539c.73-5.29-2.528-20.794-6.827-29.08C451.625,292.806,450.5,291.4,450.192,290.2Z" transform="translate(-175.505 -202.273)" fill="#f4b251"/>
      <path id="Path_378" data-name="Path 378" d="M590.6,205.945c-.182,2.84-.417,5.811-.7,8.13,2.684-1.2,3-5.472,3.1-7.869C593.079,204.2,591.333,205.372,590.6,205.945Z" transform="translate(-294.601 -139.333)" fill="#eb9257"/>
      <path id="Path_379" data-name="Path 379" d="M493.085,205.945c.182,2.84.417,5.811.7,8.13-2.684-1.2-3-5.472-3.1-7.869C490.583,204.2,492.355,205.372,493.085,205.945Z" transform="translate(-221.238 -139.333)" fill="#eb9257"/>
      <path id="Path_380" data-name="Path 380" d="M524.863,179.087a16.826,16.826,0,0,0-.73-4.586c-1.2-2.137-4.9-3.1-5.55-3.1-.678,0-3.049,1.668-3.857,1.9a11.686,11.686,0,0,1-6.045-.521c-1.068-.521-2.866,1.173-4.065,1.59-3.622,1.277-2.423,13.419-2.528,14.2A17.946,17.946,0,0,0,503,193.08c1.459,3.023,5.394,8.312,10.527,8.312h0c5.133,0,9.068-5.29,10.527-8.312a22.981,22.981,0,0,0,1.042-5.759A45.176,45.176,0,0,1,524.863,179.087Z" transform="translate(-229.591 -114.43)" fill="#f4a169"/>
      <path id="Path_381" data-name="Path 381" d="M519.563,137.876a5.953,5.953,0,0,0,.73-3.622,6.273,6.273,0,0,1-2.423.834s1.147-.365,1.225-2.4c-.026.156-.365.912-4.221.99a18.328,18.328,0,0,0-7.531-1.381c-21.133,0-11.439,27.334-11.439,27.334a44.643,44.643,0,0,1,2.059-13.107c2.58,1.537,9.381,1.746,9.381,1.746s6.8-.208,9.381-1.746a42.106,42.106,0,0,1,2.085,12.9C518.782,159.452,523.394,144.651,519.563,137.876Z" transform="translate(-223.457 -85.518)" fill="#8d6541"/>
      <path id="Path_382" data-name="Path 382" d="M591.2,133.7v0Z" transform="translate(-295.563 -86.553)" fill="#8d6541"/>
    </g>
  </g>
</svg>
