<svg xmlns="http://www.w3.org/2000/svg" width="711.263" height="609.544" viewBox="0 0 711.263 609.544">
  <g id="BgPic" transform="translate(-179 -320.199)">
    <g id="Picture1" transform="translate(132 21)">
      <rect id="Rectangle_5" data-name="Rectangle 5" width="143.591" height="1.998" transform="translate(143.126 489.94) rotate(-22.501)" fill="#49655c"/>
      <rect id="Rectangle_6" data-name="Rectangle 6" width="1.999" height="143.591" transform="matrix(0.924, -0.383, 0.383, 0.924, 181.44, 397.439)" fill="#49655c"/>
      <path id="Path_220" data-name="Path 220" d="M270.922,632.793a46.414,46.414,0,1,1-46.414,46.413,46.413,46.413,0,0,1,46.414-46.413m0-.965a47.378,47.378,0,1,1-47.379,47.378A47.378,47.378,0,0,1,270.922,631.828Z" transform="translate(-61.083 -215.82)" fill="#245b70" fill-rule="evenodd"/>
      <path id="Path_221" data-name="Path 221" d="M269.718,628.913A49.09,49.09,0,1,1,220.628,678a49.089,49.089,0,0,1,49.09-49.09m0-1.02A50.11,50.11,0,1,1,219.608,678,50.109,50.109,0,0,1,269.718,627.893Z" transform="translate(-59.879 -214.616)" fill="#245b70" fill-rule="evenodd"/>
      <path id="Path_222" data-name="Path 222" d="M295.914,523.761a3.726,3.726,0,0,1-.117.981c-1,0-1.342.752-1.342,3.234v11.347a3,3,0,0,1-.934.114l-9.456-12.349v7.884c0,2.574.339,3.348,1.571,3.348a3.016,3.016,0,0,1,.118.981c-.689-.046-1.6-.068-2.261-.068s-1.706.023-2.277.068a3.165,3.165,0,0,1,.112-.981c1.231,0,1.574-.773,1.574-3.348v-9.411l-.093-.113a1.674,1.674,0,0,0-1.481-.706,3.968,3.968,0,0,1-.112-.981c.455.046,1.121.07,1.686.07a14.522,14.522,0,0,0,1.527-.07l8.86,11.757v-7.542c0-2.483-.339-3.234-1.571-3.234a5.463,5.463,0,0,1-.112-.981c.66.046,1.5.07,2.141.07s1.553-.024,2.166-.07" transform="translate(-78.726 -182.761)" fill="#49655c" fill-rule="evenodd"/>
      <path id="Path_223" data-name="Path 223" d="M293.393,854.633a25.936,25.936,0,0,0,.132,3.009,3.847,3.847,0,0,1-1.273.206c-.457-2.62-1.321-3.214-2.69-3.214-1.617,0-2.576.822-2.576,2.256,0,4.033,7.566,3.168,7.566,8.179,0,2.279-1.573,4.375-5.191,4.375a8.218,8.218,0,0,1-4.628-1.46,21.131,21.131,0,0,0,.2-3.233,5.363,5.363,0,0,1,1.233-.137c.115,2.323,1.072,3.735,3.507,3.737,2.1,0,2.915-1.049,2.915-2.37,0-4.033-7.584-2.964-7.584-8.249,0-2.552,1.755-4.1,4.578-4.1a7.409,7.409,0,0,1,3.808,1" transform="translate(-79.801 -283.671)" fill="#49655c" fill-rule="evenodd"/>
      <path id="Path_224" data-name="Path 224" d="M130.775,688.828a3.166,3.166,0,0,1-.158.979c-.8.182-1.161.773-1.915,3.3l-3.327,11.255a2.752,2.752,0,0,1-.911.137c-1.369-3.784-3.076-8.247-4.577-12.051l-3.877,11.915a3.189,3.189,0,0,1-.977.137c-1.3-4.032-2.665-8.089-4.058-12.074-.844-2.438-.977-2.529-1.8-2.62a3.534,3.534,0,0,1-.112-.979c.731.044,1.868.067,2.574.067s1.913-.021,2.756-.067a3.969,3.969,0,0,1-.114.979c-1.591.091-1.774.319-1.07,2.346.889,2.505,1.984,5.766,2.848,8.454l3.9-11.779a2.752,2.752,0,0,1,1-.115c1.458,3.67,3.123,8.111,4.489,11.895l2.209-7.565c.686-2.3.387-3.053-1.092-3.235a3.113,3.113,0,0,1-.162-.979c.641.044,1.391.067,2.21.067.708,0,1.551-.021,2.166-.067" transform="translate(-26.062 -233.221)" fill="#49655c" fill-rule="evenodd"/>
      <path id="Path_225" data-name="Path 225" d="M452.658,701a19.9,19.9,0,0,0-.709,3.394c-.886-.021-2.734-.044-4.874-.044-1.687,0-4.761.024-5.9.067a3,3,0,0,1,.114-.979c1.231-.068,1.572-.455,1.572-2.233V691.84c0-1.526-.364-1.914-1.572-1.982a3.162,3.162,0,0,1-.114-.979c.89.044,3.008.067,3.828.067,3.577,0,5.647-.045,6.4-.067a31.277,31.277,0,0,0,.476,3.6,1.61,1.61,0,0,1-1.026.274c-.112-1.414-.8-2.894-3.737-2.894H445V696.1h1.435c1.868,0,2.508-.362,2.528-1.846a3.592,3.592,0,0,1,1.093-.158c-.046.773-.046,1.685-.046,2.481s0,1.868.046,2.644a3.768,3.768,0,0,1-1.049-.114c-.112-1.569-.7-2.027-2.572-2.027H445V701.2c0,1.685.362,2.119,2.073,2.119h.135c3.257,0,3.783-1,4.444-2.872a2.145,2.145,0,0,1,1,.548" transform="translate(-127.658 -233.272)" fill="#49655c" fill-rule="evenodd"/>
      <path id="Path_226" data-name="Path 226" d="M250.691,567.6a91.381,91.381,0,1,1-91.381,91.381A91.381,91.381,0,0,1,250.691,567.6m0-1.9a93.28,93.28,0,1,1-93.28,93.28A93.28,93.28,0,0,1,250.691,565.7Z" transform="translate(-40.852 -195.589)" fill="#49655c" fill-rule="evenodd"/>
      <path id="Path_227" data-name="Path 227" d="M259.427,597.211a70.5,70.5,0,1,1-70.5,70.5,70.5,70.5,0,0,1,70.5-70.5m0-2.958a73.459,73.459,0,1,1-73.459,73.459A73.459,73.459,0,0,1,259.427,594.253Z" transform="translate(-49.588 -204.325)" fill="#49655c" fill-rule="evenodd"/>
      <path id="Path_228" data-name="Path 228" d="M276.052,638.9l10.67-71.078v90.915Z" transform="translate(-77.146 -196.241)" fill="#fff" fill-rule="evenodd"/>
      <path id="Path_229" data-name="Path 229" d="M286.365,569.775v86.44l-10.106-18.793Zm.513-6.888-11.152,74.627,11.152,20.732Z" transform="translate(-77.046 -194.73)" fill="#245b70" fill-rule="evenodd"/>
      <path id="Path_230" data-name="Path 230" d="M291.815,562.887v95.359l11.146-20.732Z" transform="translate(-81.968 -194.73)" fill="#49655c" fill-rule="evenodd"/>
      <path id="Path_231" data-name="Path 231" d="M286.878,795.261V699.9l-11.152,20.728Z" transform="translate(-77.046 -236.644)" fill="#49655c" fill-rule="evenodd"/>
      <path id="Path_232" data-name="Path 232" d="M292.183,701.366,302.848,721.2l-10.665,71.078Z" transform="translate(-82.08 -237.092)" fill="#fff" fill-rule="evenodd"/>
      <path id="Path_233" data-name="Path 233" d="M292.326,701.936l10.1,18.789-10.1,67.646Zm-.511-2.032v95.357l11.146-74.63Z" transform="translate(-81.968 -236.644)" fill="#245b70" fill-rule="evenodd"/>
      <path id="Path_234" data-name="Path 234" d="M293.084,695.007l19.834-10.669L384,695.007Z" transform="translate(-82.356 -231.883)" fill="#fff" fill-rule="evenodd"/>
      <path id="Path_235" data-name="Path 235" d="M312.441,684.546l67.648,10.106H293.652Zm-.093-.532-20.73,11.15h95.36Z" transform="translate(-81.907 -231.784)" fill="#245b70" fill-rule="evenodd"/>
      <path id="Path_236" data-name="Path 236" d="M386.978,700.1H291.618l20.73,11.15Z" transform="translate(-81.907 -236.704)" fill="#49655c" fill-rule="evenodd"/>
      <path id="Path_237" data-name="Path 237" d="M154.6,695.164h95.363l-20.73-11.15Z" transform="translate(-39.992 -231.783)" fill="#49655c" fill-rule="evenodd"/>
      <path id="Path_238" data-name="Path 238" d="M159.561,700.468h90.9L230.7,711.094Z" transform="translate(-41.51 -236.817)" fill="#fff" fill-rule="evenodd"/>
      <path id="Path_239" data-name="Path 239" d="M247.931,700.61l-18.791,10.1-67.65-10.1Zm2.032-.513H154.6l74.633,11.15Z" transform="translate(-39.992 -236.703)" fill="#245b70" fill-rule="evenodd"/>
      <path id="Path_240" data-name="Path 240" d="M303.624,659.064l34.86-26.13-45.239,45.243Z" transform="translate(-82.405 -216.158)" fill="#fff" fill-rule="evenodd"/>
      <path id="Path_241" data-name="Path 241" d="M335.273,634.27l-41.432,41.436,9.484-17.462Zm5.462-4.737L302.927,657.9l-11.221,20.663Z" transform="translate(-81.934 -215.117)" fill="#245b70" fill-rule="evenodd"/>
      <path id="Path_242" data-name="Path 242" d="M340.745,629.544l-49.033,49.034,20.665-11.227Z" transform="translate(-81.936 -215.121)" fill="#49655c" fill-rule="evenodd"/>
      <path id="Path_243" data-name="Path 243" d="M221.258,749.019l49.032-49.033-20.666,11.227Z" transform="translate(-60.384 -236.67)" fill="#49655c" fill-rule="evenodd"/>
      <path id="Path_244" data-name="Path 244" d="M270.431,702.058l-10.388,19.11L225.191,747.3Z" transform="translate(-61.587 -237.303)" fill="#fff" fill-rule="evenodd"/>
      <path id="Path_245" data-name="Path 245" d="M268.16,702.86l-9.49,17.458-31.941,23.97ZM270.3,700l-49.033,49.034,37.8-28.37Z" transform="translate(-60.386 -236.673)" fill="#245b70" fill-rule="evenodd"/>
      <path id="Path_246" data-name="Path 246" d="M221.266,629.533,270.3,678.565,259.073,657.9Z" transform="translate(-60.386 -215.117)" fill="#49655c" fill-rule="evenodd"/>
      <path id="Path_247" data-name="Path 247" d="M250.789,668.326l-26.13-34.859L269.9,678.71Z" transform="translate(-61.424 -216.321)" fill="#fff" fill-rule="evenodd"/>
      <path id="Path_248" data-name="Path 248" d="M226,635.007l41.436,41.435-17.463-9.486Zm-4.738-5.463,28.37,37.807,20.662,11.227Z" transform="translate(-60.384 -215.121)" fill="#245b70" fill-rule="evenodd"/>
      <path id="Path_249" data-name="Path 249" d="M293.773,701.525l19.114,10.384,26.129,34.861Z" transform="translate(-82.567 -237.14)" fill="#fff" fill-rule="evenodd"/>
      <path id="Path_250" data-name="Path 250" d="M294.573,702.122l17.464,9.486,23.97,31.951Zm-2.861-2.136,49.033,49.033-28.366-37.806Z" transform="translate(-81.936 -236.669)" fill="#245b70" fill-rule="evenodd"/>
      <path id="Path_251" data-name="Path 251" d="M340.736,749.03,291.706,700l11.225,20.663Z" transform="translate(-81.934 -236.673)" fill="#49655c" fill-rule="evenodd"/>
      <path id="Path_252" data-name="Path 252" d="M259.193,581.675A2.717,2.717,0,1,1,257.272,585a2.717,2.717,0,0,1,1.921-3.328" transform="translate(-71.372 -200.449)" fill="#49655c" fill-rule="evenodd"/>
      <path id="Path_253" data-name="Path 253" d="M229.935,593.847a2.717,2.717,0,1,1-.995,3.712,2.718,2.718,0,0,1,.995-3.712" transform="translate(-62.622 -204.09)" fill="#49655c" fill-rule="evenodd"/>
      <path id="Path_254" data-name="Path 254" d="M204.824,613.178a2.717,2.717,0,1,1,0,3.843,2.718,2.718,0,0,1,0-3.843" transform="translate(-55.113 -209.871)" fill="#49655c" fill-rule="evenodd"/>
      <path id="Path_255" data-name="Path 255" d="M185.572,638.349a2.717,2.717,0,1,1,.995,3.712,2.718,2.718,0,0,1-.995-3.712" transform="translate(-49.356 -217.399)" fill="#49655c" fill-rule="evenodd"/>
      <path id="Path_256" data-name="Path 256" d="M173.491,667.645a2.717,2.717,0,1,1,1.921,3.328,2.718,2.718,0,0,1-1.921-3.328" transform="translate(-45.743 -226.16)" fill="#49655c" fill-rule="evenodd"/>
      <path id="Path_257" data-name="Path 257" d="M173.589,730.482a2.717,2.717,0,1,1,3.328,1.921,2.718,2.718,0,0,1-3.328-1.921" transform="translate(-45.773 -244.952)" fill="#49655c" fill-rule="evenodd"/>
      <path id="Path_258" data-name="Path 258" d="M185.762,759.74a2.717,2.717,0,1,1,3.712.995,2.717,2.717,0,0,1-3.712-.995" transform="translate(-49.414 -253.702)" fill="#49655c" fill-rule="evenodd"/>
      <path id="Path_259" data-name="Path 259" d="M205.093,784.851a2.717,2.717,0,1,1,3.842,0,2.717,2.717,0,0,1-3.842,0" transform="translate(-55.195 -261.211)" fill="#49655c" fill-rule="evenodd"/>
      <path id="Path_260" data-name="Path 260" d="M230.264,804.1a2.717,2.717,0,1,1,3.712-.995,2.717,2.717,0,0,1-3.712.995" transform="translate(-62.723 -266.968)" fill="#49655c" fill-rule="evenodd"/>
      <path id="Path_261" data-name="Path 261" d="M259.56,816.184a2.717,2.717,0,1,1,3.327-1.921,2.717,2.717,0,0,1-3.327,1.921" transform="translate(-71.484 -270.581)" fill="#49655c" fill-rule="evenodd"/>
      <path id="Path_262" data-name="Path 262" d="M322.4,816.086a2.717,2.717,0,1,1,1.921-3.328,2.717,2.717,0,0,1-1.921,3.328" transform="translate(-90.276 -270.551)" fill="#49655c" fill-rule="evenodd"/>
      <path id="Path_263" data-name="Path 263" d="M351.655,803.913a2.717,2.717,0,1,1,.995-3.712,2.717,2.717,0,0,1-.995,3.712" transform="translate(-99.026 -266.91)" fill="#49655c" fill-rule="evenodd"/>
      <path id="Path_264" data-name="Path 264" d="M376.766,784.583a2.717,2.717,0,1,1,0-3.843,2.717,2.717,0,0,1,0,3.843" transform="translate(-106.536 -261.129)" fill="#49655c" fill-rule="evenodd"/>
      <path id="Path_265" data-name="Path 265" d="M396.017,759.411a2.717,2.717,0,1,1-.995-3.712,2.718,2.718,0,0,1,.995,3.712" transform="translate(-112.293 -253.601)" fill="#49655c" fill-rule="evenodd"/>
      <path id="Path_266" data-name="Path 266" d="M408.1,730.115a2.717,2.717,0,1,1-1.921-3.328,2.717,2.717,0,0,1,1.921,3.328" transform="translate(-115.905 -244.84)" fill="#49655c" fill-rule="evenodd"/>
      <path id="Path_267" data-name="Path 267" d="M408,667.278a2.717,2.717,0,1,1-3.328-1.921A2.718,2.718,0,0,1,408,667.278" transform="translate(-115.875 -226.048)" fill="#49655c" fill-rule="evenodd"/>
      <path id="Path_268" data-name="Path 268" d="M395.827,638.021a2.717,2.717,0,1,1-3.712-1,2.716,2.716,0,0,1,3.712,1" transform="translate(-112.235 -217.298)" fill="#49655c" fill-rule="evenodd"/>
      <path id="Path_269" data-name="Path 269" d="M376.5,612.91a2.717,2.717,0,1,1-3.842,0,2.717,2.717,0,0,1,3.842,0" transform="translate(-106.454 -209.789)" fill="#49655c" fill-rule="evenodd"/>
      <path id="Path_270" data-name="Path 270" d="M351.325,593.657a2.717,2.717,0,1,1-3.712.995,2.717,2.717,0,0,1,3.712-.995" transform="translate(-98.925 -204.031)" fill="#49655c" fill-rule="evenodd"/>
      <path id="Path_271" data-name="Path 271" d="M322.029,581.577A2.717,2.717,0,1,1,318.7,583.5a2.717,2.717,0,0,1,3.327-1.921" transform="translate(-90.164 -200.419)" fill="#49655c" fill-rule="evenodd"/>
      <rect id="Rectangle_7" data-name="Rectangle 7" width="1.999" height="143.591" transform="translate(143.126 436.848) rotate(-67.5)" fill="#49655c"/>
      <rect id="Rectangle_8" data-name="Rectangle 8" width="143.591" height="1.999" transform="matrix(0.383, -0.924, 0.924, 0.383, 181.44, 529.348)" fill="#49655c"/>
    </g>
    <g id="Picture2">
      <path id="Path_272" data-name="Path 272" d="M-90.777,384.1c1.951,2.756,5.4,5.469,5.259,7.986-.161,2.969-2.813,6.784-5.49,8.393-3.509,2.109-8.1,2.421-12.222,3.505l-.413-1.357c.793-.318,1.6-.6,2.374-.959a110.077,110.077,0,0,0,10.441-5.106c1.058-.642,2.068-3.133,1.622-4.081-.711-1.508-2.6-2.531-4.127-3.545-.518-.343-1.512.129-2.2-.069a33.508,33.508,0,0,1-3.476-1.4c.531-1.16.817-2.543,1.635-3.444,4.009-4.415,9.251-4.473,14.616-3.742a9.553,9.553,0,0,1,3.885,1.087c5.772,3.784,10.672.877,15.279-2.173,1.5-1,3.077-3.914,2.623-5.3-.51-1.55-3.2-2.52-5.1-3.435a21.864,21.864,0,0,0-4.364-1.122c.906-1.608,1.466-3.619,2.782-4.752,4.114-3.542,9.231-3.752,14.05-2.329,11.815,3.489,20.157,11.648,27.211,21.374C-37.511,375.5-47.3,364.7-63.02,366.286c3.628,2.069,6.771,4.3,6.04,9.073s-6.214,8.427-11.352,9.086l15.252,15.879-2.045,2.211q-2.167-1.925-4.334-3.85c-7.335-6.555-15.2-12.274-24.989-14.506C-86.755,383.653-89.283,384.1-90.777,384.1Z" transform="translate(851.645 -41.242)" fill="#49655c"/>
      <path id="Path_309" data-name="Path 309" d="M-90.777,384.1c1.951,2.756,5.4,5.469,5.259,7.986-.161,2.969-2.813,6.784-5.49,8.393-3.509,2.109-8.1,2.421-12.222,3.505l-.413-1.357c.793-.318,1.6-.6,2.374-.959a110.077,110.077,0,0,0,10.441-5.106c1.058-.642,2.068-3.133,1.622-4.081-.711-1.508-2.6-2.531-4.127-3.545-.518-.343-1.512.129-2.2-.069a33.508,33.508,0,0,1-3.476-1.4c.531-1.16.817-2.543,1.635-3.444,4.009-4.415,9.251-4.473,14.616-3.742a9.553,9.553,0,0,1,3.885,1.087c5.772,3.784,10.672.877,15.279-2.173,1.5-1,3.077-3.914,2.623-5.3-.51-1.55-3.2-2.52-5.1-3.435a21.864,21.864,0,0,0-4.364-1.122c.906-1.608,1.466-3.619,2.782-4.752,4.114-3.542,9.231-3.752,14.05-2.329,11.815,3.489,20.157,11.648,27.211,21.374C-37.511,375.5-47.3,364.7-63.02,366.286c3.628,2.069,6.771,4.3,6.04,9.073s-6.214,8.427-11.352,9.086l15.252,15.879-2.045,2.211q-2.167-1.925-4.334-3.85c-7.335-6.555-15.2-12.274-24.989-14.506C-86.755,383.653-89.283,384.1-90.777,384.1Z" transform="translate(619.645 279.758)" fill="#49655c"/>
      <path id="Path_308" data-name="Path 308" d="M-90.777,384.1c1.951,2.756,5.4,5.469,5.259,7.986-.161,2.969-2.813,6.784-5.49,8.393-3.509,2.109-8.1,2.421-12.222,3.505l-.413-1.357c.793-.318,1.6-.6,2.374-.959a110.077,110.077,0,0,0,10.441-5.106c1.058-.642,2.068-3.133,1.622-4.081-.711-1.508-2.6-2.531-4.127-3.545-.518-.343-1.512.129-2.2-.069a33.508,33.508,0,0,1-3.476-1.4c.531-1.16.817-2.543,1.635-3.444,4.009-4.415,9.251-4.473,14.616-3.742a9.553,9.553,0,0,1,3.885,1.087c5.772,3.784,10.672.877,15.279-2.173,1.5-1,3.077-3.914,2.623-5.3-.51-1.55-3.2-2.52-5.1-3.435a21.864,21.864,0,0,0-4.364-1.122c.906-1.608,1.466-3.619,2.782-4.752,4.114-3.542,9.231-3.752,14.05-2.329,11.815,3.489,20.157,11.648,27.211,21.374C-37.511,375.5-47.3,364.7-63.02,366.286c3.628,2.069,6.771,4.3,6.04,9.073s-6.214,8.427-11.352,9.086l15.252,15.879-2.045,2.211q-2.167-1.925-4.334-3.85c-7.335-6.555-15.2-12.274-24.989-14.506C-86.755,383.653-89.283,384.1-90.777,384.1Z" transform="translate(394.645 525.758)" fill="#49655c"/>
      <path id="Path_273" data-name="Path 273" d="M-90.777,384.1c1.951,2.756,5.4,5.469,5.259,7.986-.161,2.969-2.813,6.784-5.49,8.393-3.509,2.109-8.1,2.421-12.222,3.505l-.413-1.357c.793-.318,1.6-.6,2.374-.959a110.077,110.077,0,0,0,10.441-5.106c1.058-.642,2.068-3.133,1.622-4.081-.711-1.508-2.6-2.531-4.127-3.545-.518-.343-1.512.129-2.2-.069a33.508,33.508,0,0,1-3.476-1.4c.531-1.16.817-2.543,1.635-3.444,4.009-4.415,9.251-4.473,14.616-3.742a9.553,9.553,0,0,1,3.885,1.087c5.772,3.784,10.672.877,15.279-2.173,1.5-1,3.077-3.914,2.623-5.3-.51-1.55-3.2-2.52-5.1-3.435a21.864,21.864,0,0,0-4.364-1.122c.906-1.608,1.466-3.619,2.782-4.752,4.114-3.542,9.231-3.752,14.05-2.329,11.815,3.489,20.157,11.648,27.211,21.374C-37.511,375.5-47.3,364.7-63.02,366.286c3.628,2.069,6.771,4.3,6.04,9.073s-6.214,8.427-11.352,9.086l15.252,15.879-2.045,2.211q-2.167-1.925-4.334-3.85c-7.335-6.555-15.2-12.274-24.989-14.506C-86.755,383.653-89.283,384.1-90.777,384.1Z" transform="translate(862.645 385.758)" fill="#49655c"/>
      <path id="Path_274" data-name="Path 274" d="M-213.751,438.666c-11.3-8.189-21.267-18.486-36.989-17.32,7.4,2.993,6.965,8.58,4.415,14.727l-16.008,5.056q-.281-.835-.561-1.671c2.532-.908,5.116-1.7,7.58-2.764,1.77-.765,3.748-1.575,4.956-2.957,1.1-1.258,2.131-3.625,1.648-4.932-.508-1.374-2.782-2.21-4.422-2.995-.714-.342-1.794.184-2.666.047-2.633-.412-3.431-1.707-1.619-3.97,4.379-5.468,10.271-5.885,16.379-4.381,9.579,2.357,16.409,9.009,23.077,15.739A54.871,54.871,0,0,1-213.751,438.666Z" transform="translate(752.761 205.508)" fill="#49655c"/>
      <path id="Path_310" data-name="Path 310" d="M-213.751,438.666c-11.3-8.189-21.267-18.486-36.989-17.32,7.4,2.993,6.965,8.58,4.415,14.727l-16.008,5.056q-.281-.835-.561-1.671c2.532-.908,5.116-1.7,7.58-2.764,1.77-.765,3.748-1.575,4.956-2.957,1.1-1.258,2.131-3.625,1.648-4.932-.508-1.374-2.782-2.21-4.422-2.995-.714-.342-1.794.184-2.666.047-2.633-.412-3.431-1.707-1.619-3.97,4.379-5.468,10.271-5.885,16.379-4.381,9.579,2.357,16.409,9.009,23.077,15.739A54.871,54.871,0,0,1-213.751,438.666Z" transform="translate(781.761 -32.492)" fill="#49655c"/>
      <path id="Path_275" data-name="Path 275" d="M45.9,536.442c6.507-5.221,8.59-16.522,19.644-10.644,2.06,1.1,3.826,6.99,2.715,9.034C64.325,542.073,54.473,542.87,45.9,536.442Z" transform="translate(159.519 276.736)"/>
      <path id="Path_296" data-name="Path 296" d="M45.9,536.442c6.507-5.221,8.59-16.522,19.644-10.644,2.06,1.1,3.826,6.99,2.715,9.034C64.325,542.073,54.473,542.87,45.9,536.442Z" transform="translate(907.581 1134.05) rotate(180)"/>
      <path id="Path_288" data-name="Path 288" d="M45.9,536.442c6.507-5.221,8.59-16.522,19.644-10.644,2.06,1.1,3.826,6.99,2.715,9.034C64.325,542.073,54.473,542.87,45.9,536.442Z" transform="matrix(-0.891, -0.454, 0.454, -0.891, 363.426, 1307.613)"/>
      <path id="Path_276" data-name="Path 276" d="M43.238,535.009c4.338,5.758,10.454,10.839,9.536,13.288-1.989,5.317-7.572,9.291-11.684,13.815-2.341-2.332-7.024-5.277-6.6-6.886C36.059,549.213,39.3,543.641,43.238,535.009Z" transform="translate(149.04 286.687)"/>
      <path id="Path_295" data-name="Path 295" d="M43.238,535.009c4.338,5.758,10.454,10.839,9.536,13.288-1.989,5.317-7.572,9.291-11.684,13.815-2.341-2.332-7.024-5.277-6.6-6.886C36.059,549.213,39.3,543.641,43.238,535.009Z" transform="translate(918.06 1124.099) rotate(180)"/>
      <path id="Path_294" data-name="Path 294" d="M43.238,535.009c4.338,5.758,10.454,10.839,9.536,13.288-1.989,5.317-7.572,9.291-11.684,13.815-2.341-2.332-7.024-5.277-6.6-6.886C36.059,549.213,39.3,543.641,43.238,535.009Z" transform="translate(1026.213 209.238) rotate(43)"/>
      <path id="Path_306" data-name="Path 306" d="M43.238,535.009c4.338,5.758,10.454,10.839,9.536,13.288-1.989,5.317-7.572,9.291-11.684,13.815-2.341-2.332-7.024-5.277-6.6-6.886C36.059,549.213,39.3,543.641,43.238,535.009Z" transform="matrix(-0.454, 0.891, -0.891, -0.454, 1382.605, 743.055)"/>
      <path id="Path_286" data-name="Path 286" d="M43.238,535.009c4.338,5.758,10.454,10.839,9.536,13.288-1.989,5.317-7.572,9.291-11.684,13.815-2.341-2.332-7.024-5.277-6.6-6.886C36.059,549.213,39.3,543.641,43.238,535.009Z" transform="matrix(-0.891, -0.454, 0.454, -0.891, 377.281, 1303.504)"/>
      <path id="Path_301" data-name="Path 301" d="M43.238,535.009c4.338,5.758,10.454,10.839,9.536,13.288-1.989,5.317-7.572,9.291-11.684,13.815-2.341-2.332-7.024-5.277-6.6-6.886C36.059,549.213,39.3,543.641,43.238,535.009Z" transform="translate(151.859 420.881) rotate(-79)"/>
      <path id="Path_277" data-name="Path 277" d="M116.6,502.8c-.289,7.2,1.226,15.009-1.035,16.323-4.907,2.855-11.744,2.4-17.793,3.29-.333-3.286-2.094-8.53-.747-9.511C102.049,509.249,108.091,506.99,116.6,502.8Z" transform="translate(205.896 257.184)"/>
      <path id="Path_299" data-name="Path 299" d="M116.6,502.8c-.289,7.2,1.226,15.009-1.035,16.323-4.907,2.855-11.744,2.4-17.793,3.29-.333-3.286-2.094-8.53-.747-9.511C102.049,509.249,108.091,506.99,116.6,502.8Z" transform="translate(861.204 1153.602) rotate(180)"/>
      <path id="Path_278" data-name="Path 278" d="M78.706,521.2c4.976-8.088,10.671-13.65,20.117-10.423,1.2.412,1.956,8.369.257,9.925C93.138,526.141,86.043,528.32,78.706,521.2Z" transform="translate(189.571 263.637)"/>
      <path id="Path_298" data-name="Path 298" d="M78.706,521.2c4.976-8.088,10.671-13.65,20.117-10.423,1.2.412,1.956,8.369.257,9.925C93.138,526.141,86.043,528.32,78.706,521.2Z" transform="translate(877.529 1147.149) rotate(180)"/>
      <path id="Path_291" data-name="Path 291" d="M78.706,521.2c4.976-8.088,10.671-13.65,20.117-10.423,1.2.412,1.956,8.369.257,9.925C93.138,526.141,86.043,528.32,78.706,521.2Z" transform="matrix(-0.891, -0.454, 0.454, -0.891, 330.702, 1305.641)"/>
      <path id="Path_279" data-name="Path 279" d="M132.872,517.338c-6.7-3.688-16.377,4.928-19.067-6.75-.291-1.266,5.915-5.488,9.368-5.852C130.2,503.995,136.376,505.894,132.872,517.338Z" transform="translate(221.715 258.826)"/>
      <path id="Path_300" data-name="Path 300" d="M132.872,517.338c-6.7-3.688-16.377,4.928-19.067-6.75-.291-1.266,5.915-5.488,9.368-5.852C130.2,503.995,136.376,505.894,132.872,517.338Z" transform="translate(845.385 1151.96) rotate(180)"/>
      <path id="Path_280" data-name="Path 280" d="M130.949,513.851c3.625-1.146,7.915-4.1,10.736-3.064,6.007,2.207,15.679,4.11,6.984,16.114-5.6-2.782-11.535-5.733-17.469-8.682Q131.074,516.035,130.949,513.851Z" transform="translate(237.43 264.299)"/>
      <path id="Path_281" data-name="Path 281" d="M185.724,535.178c-6.7-3.688-16.377,4.926-19.067-6.752-.291-1.266,5.913-5.486,9.368-5.85C183.056,521.835,189.228,523.734,185.724,535.178Z" transform="translate(270.132 275.169)"/>
      <path id="Path_282" data-name="Path 282" d="M167.773,535.678c-8.551-4.066-14.4-6.7-19.96-9.854-.335-.19,1.937-6.691,2.581-6.616,5.48.627,11.165,1.447,16.1,3.713C167.953,523.593,167.219,529.046,167.773,535.678Z" transform="translate(252.848 272.211)"/>
      <path id="Path_283" data-name="Path 283" d="M86.034,526.735c-9.061,2.75-15.162,4.74-21.395,6.145-.376.086-3.07-6.252-2.545-6.63,4.476-3.225,9.232-6.444,14.4-8.086C78.032,517.676,81.159,522.2,86.034,526.735Z" transform="translate(174.292 271.223)"/>
      <path id="Path_297" data-name="Path 297" d="M86.034,526.735c-9.061,2.75-15.162,4.74-21.395,6.145-.376.086-3.07-6.252-2.545-6.63,4.476-3.225,9.232-6.444,14.4-8.086C78.032,517.676,81.159,522.2,86.034,526.735Z" transform="translate(892.808 1139.563) rotate(180)"/>
      <path id="Path_289" data-name="Path 289" d="M86.034,526.735c-9.061,2.75-15.162,4.74-21.395,6.145-.376.086-3.07-6.252-2.545-6.63,4.476-3.225,9.232-6.444,14.4-8.086C78.032,517.676,81.159,522.2,86.034,526.735Z" transform="matrix(-0.891, -0.454, 0.454, -0.891, 347.76, 1305.818)"/>
      <path id="Path_284" data-name="Path 284" d="M43.982,556.332c-2.926,8.471,8.663,20.54-10.125,21.171-.569-6.536-1.113-12.759-1.746-20.013Z" transform="translate(146.888 306.22)"/>
      <path id="Path_293" data-name="Path 293" d="M43.982,556.332c-2.926,8.471,8.663,20.54-10.125,21.171-.569-6.536-1.113-12.759-1.746-20.013Z" transform="translate(1011.318 222.056) rotate(43)"/>
      <path id="Path_305" data-name="Path 305" d="M43.982,556.332c-2.926,8.471,8.663,20.54-10.125,21.171-.569-6.536-1.113-12.759-1.746-20.013Z" transform="matrix(-0.454, 0.891, -0.891, -0.454, 1366.177, 732.27)"/>
      <path id="Path_290" data-name="Path 290" d="M43.982,556.332c-2.926,8.471,8.663,20.54-10.125,21.171-.569-6.536-1.113-12.759-1.746-20.013Z" transform="matrix(-0.891, -0.454, 0.454, -0.891, 388.066, 1287.077)"/>
      <path id="Path_302" data-name="Path 302" d="M43.982,556.332c-2.926,8.471,8.663,20.54-10.125,21.171-.569-6.536-1.113-12.759-1.746-20.013Z" transform="translate(170.623 426.721) rotate(-79)"/>
      <path id="Path_285" data-name="Path 285" d="M50.083,594.743l-12.167,1.349c1.533-7.852-10.308-17.927,7.385-21.569C46.81,580.9,48.234,586.924,50.083,594.743Z" transform="translate(149.94 322.885)"/>
      <path id="Path_292" data-name="Path 292" d="M50.083,594.743l-12.167,1.349c1.533-7.852-10.308-17.927,7.385-21.569C46.81,580.9,48.234,586.924,50.083,594.743Z" transform="translate(1002.185 236.326) rotate(43)"/>
      <path id="Path_304" data-name="Path 304" d="M50.083,594.743l-12.167,1.349c1.533-7.852-10.308-17.927,7.385-21.569C46.81,580.9,48.234,586.924,50.083,594.743Z" transform="matrix(-0.454, 0.891, -0.891, -0.454, 1349.944, 727.424)"/>
      <path id="Path_287" data-name="Path 287" d="M50.083,594.743l-12.167,1.349c1.533-7.852-10.308-17.927,7.385-21.569C46.81,580.9,48.234,586.924,50.083,594.743Z" transform="matrix(-0.891, -0.454, 0.454, -0.891, 392.912, 1270.843)"/>
      <path id="Path_303" data-name="Path 303" d="M50.083,594.743l-12.167,1.349c1.533-7.852-10.308-17.927,7.385-21.569C46.81,580.9,48.234,586.924,50.083,594.743Z" transform="translate(187.563 426.904) rotate(-79)"/>
      <path id="Path_307" data-name="Path 307" d="M-171.525,614.289c-4.286-4.745-9.015-9.194-12.53-14.453-.836-1.25,1.777-5.974,3.923-7.747,2.612-2.16,6.4-2.888,9.626-4.21l-4.086-13.943,10.822-1.686c3.256-8.054,4.24-15.3-4.451-21.36-2.355-1.64-4.548-8.161-3.523-9.2,4.576-4.65,10.345-8.127,17.22-13.149,1.871,14.538,3.326,25.845,5.161,40.1l26.157-28.876c4.15,6.433,7.856,12.176,10.92,16.921-9.391,6.965-17.506,12.765-25.371,18.888-5.922,4.608-5.5,9.992-.961,15.44,2.669,3.2,5.94,6.061,7.92,9.64,7.452,13.474,3.3,20.008-12.576,20.154q-2.726-16.186-5.468-32.457l-3.053-1.18c-3.575,5.149-7.044,10.38-10.771,15.418-1.9,2.576-4.274,4.811-6.4,7.17C-169.8,611.246-170.661,612.767-171.525,614.289Z" transform="matrix(-0.966, -0.259, 0.259, -0.966, 361.132, 968.898)"/>
    </g>
  </g>
</svg>
