<svg xmlns="http://www.w3.org/2000/svg" width="1570.308" height="836.78" viewBox="0 0 1570.308 836.78">
  <g id="LoginBgPic" transform="translate(-174.475 -93.169)">
    <g id="BgPic1" transform="translate(174.475 675.165)" opacity="0.59">
      <rect id="Rectangle_5" data-name="Rectangle 5" width="138.217" height="1.924" transform="translate(57.876 143.365) rotate(-22.501)" fill="#49655c"/>
      <rect id="Rectangle_6" data-name="Rectangle 6" width="1.924" height="138.217" transform="matrix(0.924, -0.383, 0.383, 0.924, 94.756, 54.326)" fill="#49655c"/>
      <path id="Path_220" data-name="Path 220" d="M269.149,632.757a44.677,44.677,0,1,1-44.677,44.676,44.676,44.676,0,0,1,44.677-44.676m0-.929a45.6,45.6,0,1,1-45.606,45.6A45.605,45.605,0,0,1,269.149,631.828Z" transform="translate(-147.057 -559.627)" fill="#245b70" fill-rule="evenodd"/>
      <path id="Path_221" data-name="Path 221" d="M267.843,628.874a47.253,47.253,0,1,1-47.252,47.253,47.252,47.252,0,0,1,47.252-47.253m0-.981a48.234,48.234,0,1,1-48.235,48.234A48.234,48.234,0,0,1,267.843,627.893Z" transform="translate(-145.751 -558.321)" fill="#245b70" fill-rule="evenodd"/>
      <path id="Path_222" data-name="Path 222" d="M295.364,523.761a3.585,3.585,0,0,1-.112.944c-.965,0-1.291.724-1.291,3.113v10.922a2.883,2.883,0,0,1-.9.11l-9.1-11.887v7.589c0,2.478.327,3.222,1.513,3.222a2.9,2.9,0,0,1,.114.944c-.663-.044-1.539-.065-2.176-.065s-1.642.022-2.192.065a3.046,3.046,0,0,1,.108-.944c1.185,0,1.515-.744,1.515-3.222v-9.059l-.09-.109a1.612,1.612,0,0,0-1.426-.679,3.82,3.82,0,0,1-.108-.944c.438.044,1.079.068,1.623.068a13.974,13.974,0,0,0,1.47-.068l8.528,11.317v-7.26c0-2.39-.326-3.113-1.513-3.113a5.255,5.255,0,0,1-.108-.944c.635.044,1.446.068,2.06.068s1.495-.023,2.085-.068" transform="translate(-166.198 -523.761)" fill="#49655c" fill-rule="evenodd"/>
      <path id="Path_223" data-name="Path 223" d="M293.069,854.6a24.966,24.966,0,0,0,.127,2.9,3.7,3.7,0,0,1-1.225.2c-.44-2.522-1.271-3.094-2.589-3.094-1.557,0-2.48.791-2.48,2.172,0,3.882,7.282,3.049,7.282,7.873,0,2.194-1.514,4.212-5,4.212a7.91,7.91,0,0,1-4.455-1.405,20.341,20.341,0,0,0,.2-3.112,5.162,5.162,0,0,1,1.187-.132c.11,2.236,1.032,3.6,3.376,3.6,2.02,0,2.806-1.01,2.806-2.281,0-3.882-7.3-2.854-7.3-7.941,0-2.457,1.69-3.947,4.406-3.947a7.131,7.131,0,0,1,3.665.964" transform="translate(-167.364 -633.24)" fill="#49655c" fill-rule="evenodd"/>
      <path id="Path_224" data-name="Path 224" d="M129.962,688.824a3.048,3.048,0,0,1-.152.943c-.768.175-1.117.744-1.843,3.179l-3.2,10.834a2.649,2.649,0,0,1-.877.132c-1.318-3.642-2.96-7.938-4.406-11.6L115.75,703.78a3.069,3.069,0,0,1-.941.132c-1.249-3.881-2.566-7.786-3.906-11.622-.812-2.347-.941-2.435-1.734-2.522a3.4,3.4,0,0,1-.108-.943c.7.043,1.8.064,2.478.064s1.841-.021,2.652-.064a3.821,3.821,0,0,1-.11.943c-1.531.088-1.708.307-1.03,2.258.856,2.411,1.91,5.55,2.741,8.138l3.752-11.339a2.649,2.649,0,0,1,.964-.111c1.4,3.533,3.006,7.808,4.321,11.449l2.126-7.282c.661-2.215.373-2.939-1.051-3.114a3,3,0,0,1-.156-.943c.617.043,1.339.064,2.127.064.681,0,1.493-.021,2.085-.064" transform="translate(-109.062 -578.506)" fill="#49655c" fill-rule="evenodd"/>
      <path id="Path_225" data-name="Path 225" d="M452.228,700.546a19.15,19.15,0,0,0-.682,3.267c-.853-.02-2.632-.043-4.692-.043-1.624,0-4.583.023-5.68.065a2.89,2.89,0,0,1,.11-.943c1.185-.065,1.513-.438,1.513-2.149v-9.014c0-1.469-.351-1.842-1.513-1.907a3.045,3.045,0,0,1-.11-.943c.857.043,2.9.064,3.685.064,3.443,0,5.436-.043,6.163-.064a30.1,30.1,0,0,0,.458,3.465,1.55,1.55,0,0,1-.987.264c-.108-1.361-.767-2.786-3.6-2.786h-2.036v6.008h1.381c1.8,0,2.415-.349,2.433-1.776a3.457,3.457,0,0,1,1.052-.152c-.044.744-.044,1.622-.044,2.389s0,1.8.044,2.545a3.626,3.626,0,0,1-1.01-.11c-.108-1.511-.677-1.951-2.475-1.951h-1.381v3.969c0,1.622.349,2.04,2,2.04h.13c3.135,0,3.641-.965,4.278-2.764a2.066,2.066,0,0,1,.966.527" transform="translate(-219.285 -578.561)" fill="#49655c" fill-rule="evenodd"/>
      <path id="Path_226" data-name="Path 226" d="M247.2,567.524a87.961,87.961,0,1,1-87.961,87.961A87.961,87.961,0,0,1,247.2,567.524m0-1.828a89.789,89.789,0,1,1-89.789,89.789A89.789,89.789,0,0,1,247.2,565.7Z" transform="translate(-125.108 -537.679)" fill="#49655c" fill-rule="evenodd"/>
      <path id="Path_227" data-name="Path 227" d="M256.678,597.1a67.862,67.862,0,1,1-67.862,67.862A67.862,67.862,0,0,1,256.678,597.1m0-2.848a70.71,70.71,0,1,1-70.71,70.709A70.709,70.709,0,0,1,256.678,594.253Z" transform="translate(-134.586 -547.156)" fill="#49655c" fill-rule="evenodd"/>
      <path id="Path_228" data-name="Path 228" d="M276.052,636.244l10.271-68.418v87.512Z" transform="translate(-164.483 -538.385)" fill="#fff" fill-rule="evenodd"/>
      <path id="Path_229" data-name="Path 229" d="M285.967,569.517v83.2l-9.728-18.09Zm.494-6.63-10.735,71.835,10.735,19.956Z" transform="translate(-164.375 -536.746)" fill="#245b70" fill-rule="evenodd"/>
      <path id="Path_230" data-name="Path 230" d="M291.815,562.887v91.79l10.729-19.956Z" transform="translate(-169.715 -536.746)" fill="#49655c" fill-rule="evenodd"/>
      <path id="Path_231" data-name="Path 231" d="M286.461,791.692V699.9l-10.735,19.952Z" transform="translate(-164.375 -582.22)" fill="#49655c" fill-rule="evenodd"/>
      <path id="Path_232" data-name="Path 232" d="M292.183,701.366l10.265,19.092-10.265,68.418Z" transform="translate(-169.837 -582.705)" fill="#fff" fill-rule="evenodd"/>
      <path id="Path_233" data-name="Path 233" d="M292.307,701.86l9.726,18.086-9.726,65.114Zm-.492-1.956v91.788l10.729-71.836Z" transform="translate(-169.715 -582.22)" fill="#245b70" fill-rule="evenodd"/>
      <path id="Path_234" data-name="Path 234" d="M293.084,694.608l19.091-10.27,68.42,10.27Z" transform="translate(-170.136 -577.054)" fill="#fff" fill-rule="evenodd"/>
      <path id="Path_235" data-name="Path 235" d="M311.662,684.526l65.116,9.728h-83.2Zm-.09-.512-19.955,10.733h91.791Z" transform="translate(-169.65 -576.946)" fill="#245b70" fill-rule="evenodd"/>
      <path id="Path_236" data-name="Path 236" d="M383.409,700.1H291.618l19.954,10.732Z" transform="translate(-169.65 -582.284)" fill="#49655c" fill-rule="evenodd"/>
      <path id="Path_237" data-name="Path 237" d="M154.6,694.747h91.794l-19.954-10.733Z" transform="translate(-124.175 -576.946)" fill="#49655c" fill-rule="evenodd"/>
      <path id="Path_238" data-name="Path 238" d="M159.561,700.468h87.5L228.04,710.7Z" transform="translate(-125.822 -582.407)" fill="#fff" fill-rule="evenodd"/>
      <path id="Path_239" data-name="Path 239" d="M244.438,700.591l-18.088,9.726-65.119-9.726Zm1.956-.494H154.6l71.84,10.733Z" transform="translate(-124.175 -582.284)" fill="#245b70" fill-rule="evenodd"/>
      <path id="Path_240" data-name="Path 240" d="M303.236,658.086l33.556-25.153-43.546,43.55Z" transform="translate(-170.19 -559.994)" fill="#fff" fill-rule="evenodd"/>
      <path id="Path_241" data-name="Path 241" d="M333.643,634.093l-39.882,39.885,9.129-16.808Zm5.257-4.56L302.507,656.84l-10.8,19.89Z" transform="translate(-169.679 -558.865)" fill="#245b70" fill-rule="evenodd"/>
      <path id="Path_242" data-name="Path 242" d="M338.91,629.544l-47.2,47.2L311.6,665.936Z" transform="translate(-169.681 -558.869)" fill="#49655c" fill-rule="evenodd"/>
      <path id="Path_243" data-name="Path 243" d="M221.258,747.184l47.2-47.2-19.893,10.807Z" transform="translate(-146.298 -582.247)" fill="#49655c" fill-rule="evenodd"/>
      <path id="Path_244" data-name="Path 244" d="M268.738,702.058l-10,18.4-33.548,25.152Z" transform="translate(-147.604 -582.935)" fill="#fff" fill-rule="evenodd"/>
      <path id="Path_245" data-name="Path 245" d="M266.405,702.753l-9.134,16.8-30.745,23.073ZM268.464,700l-47.2,47.2,36.386-27.309Z" transform="translate(-146.301 -582.251)" fill="#245b70" fill-rule="evenodd"/>
      <path id="Path_246" data-name="Path 246" d="M221.266,629.533l47.2,47.2-10.806-19.89Z" transform="translate(-146.301 -558.865)" fill="#49655c" fill-rule="evenodd"/>
      <path id="Path_247" data-name="Path 247" d="M249.811,667.022l-25.152-33.554,43.549,43.549Z" transform="translate(-147.427 -560.171)" fill="#fff" fill-rule="evenodd"/>
      <path id="Path_248" data-name="Path 248" d="M225.819,634.8,265.7,674.687l-16.81-9.131Zm-4.561-5.259,27.308,36.392,19.889,10.807Z" transform="translate(-146.298 -558.869)" fill="#245b70" fill-rule="evenodd"/>
      <path id="Path_249" data-name="Path 249" d="M293.773,701.525l18.4,10,25.151,33.556Z" transform="translate(-170.365 -582.758)" fill="#fff" fill-rule="evenodd"/>
      <path id="Path_250" data-name="Path 250" d="M294.466,702.042l16.81,9.131,23.073,30.755Zm-2.754-2.057,47.2,47.2-27.3-36.391Z" transform="translate(-169.681 -582.247)" fill="#245b70" fill-rule="evenodd"/>
      <path id="Path_251" data-name="Path 251" d="M338.9,747.2,291.706,700l10.8,19.89Z" transform="translate(-169.679 -582.251)" fill="#49655c" fill-rule="evenodd"/>
      <path id="Path_252" data-name="Path 252" d="M259.118,581.671a2.616,2.616,0,1,1-1.849,3.2,2.615,2.615,0,0,1,1.849-3.2" transform="translate(-158.22 -542.951)" fill="#49655c" fill-rule="evenodd"/>
      <path id="Path_253" data-name="Path 253" d="M229.884,593.834a2.616,2.616,0,1,1-.957,3.573,2.616,2.616,0,0,1,.957-3.573" transform="translate(-148.727 -546.901)" fill="#49655c" fill-rule="evenodd"/>
      <path id="Path_254" data-name="Path 254" d="M204.794,613.149a2.616,2.616,0,1,1,0,3.7,2.616,2.616,0,0,1,0-3.7" transform="translate(-140.58 -553.173)" fill="#49655c" fill-rule="evenodd"/>
      <path id="Path_255" data-name="Path 255" d="M185.559,638.3a2.615,2.615,0,1,1,.957,3.573,2.616,2.616,0,0,1-.957-3.573" transform="translate(-134.334 -561.34)" fill="#49655c" fill-rule="evenodd"/>
      <path id="Path_256" data-name="Path 256" d="M173.487,667.57a2.616,2.616,0,1,1,1.849,3.2,2.616,2.616,0,0,1-1.849-3.2" transform="translate(-130.414 -570.845)" fill="#49655c" fill-rule="evenodd"/>
      <path id="Path_257" data-name="Path 257" d="M173.586,730.354a2.616,2.616,0,1,1,3.2,1.849,2.616,2.616,0,0,1-3.2-1.849" transform="translate(-130.447 -591.233)" fill="#49655c" fill-rule="evenodd"/>
      <path id="Path_258" data-name="Path 258" d="M185.749,759.588a2.615,2.615,0,1,1,3.573.957,2.615,2.615,0,0,1-3.573-.957" transform="translate(-134.397 -600.726)" fill="#49655c" fill-rule="evenodd"/>
      <path id="Path_259" data-name="Path 259" d="M205.063,784.678a2.616,2.616,0,1,1,3.7,0,2.616,2.616,0,0,1-3.7,0" transform="translate(-140.669 -608.873)" fill="#49655c" fill-rule="evenodd"/>
      <path id="Path_260" data-name="Path 260" d="M230.213,803.913a2.616,2.616,0,1,1,3.573-.957,2.615,2.615,0,0,1-3.573.957" transform="translate(-148.836 -615.119)" fill="#49655c" fill-rule="evenodd"/>
      <path id="Path_261" data-name="Path 261" d="M259.485,815.984a2.616,2.616,0,1,1,3.2-1.849,2.615,2.615,0,0,1-3.2,1.849" transform="translate(-158.341 -619.039)" fill="#49655c" fill-rule="evenodd"/>
      <path id="Path_262" data-name="Path 262" d="M322.268,815.886a2.616,2.616,0,1,1,1.849-3.2,2.615,2.615,0,0,1-1.849,3.2" transform="translate(-178.729 -619.006)" fill="#49655c" fill-rule="evenodd"/>
      <path id="Path_263" data-name="Path 263" d="M351.5,803.723a2.616,2.616,0,1,1,.957-3.573,2.615,2.615,0,0,1-.957,3.573" transform="translate(-188.222 -615.056)" fill="#49655c" fill-rule="evenodd"/>
      <path id="Path_264" data-name="Path 264" d="M376.592,784.409a2.615,2.615,0,1,1,0-3.7,2.615,2.615,0,0,1,0,3.7" transform="translate(-196.369 -608.784)" fill="#49655c" fill-rule="evenodd"/>
      <path id="Path_265" data-name="Path 265" d="M395.827,759.259a2.615,2.615,0,1,1-.957-3.573,2.616,2.616,0,0,1,.957,3.573" transform="translate(-202.615 -600.617)" fill="#49655c" fill-rule="evenodd"/>
      <path id="Path_266" data-name="Path 266" d="M407.9,729.987a2.616,2.616,0,1,1-1.849-3.2,2.615,2.615,0,0,1,1.849,3.2" transform="translate(-206.535 -591.111)" fill="#49655c" fill-rule="evenodd"/>
      <path id="Path_267" data-name="Path 267" d="M407.8,667.2a2.616,2.616,0,1,1-3.2-1.849,2.616,2.616,0,0,1,3.2,1.849" transform="translate(-206.502 -570.724)" fill="#49655c" fill-rule="evenodd"/>
      <path id="Path_268" data-name="Path 268" d="M395.637,637.97a2.615,2.615,0,1,1-3.573-.958,2.615,2.615,0,0,1,3.573.958" transform="translate(-202.552 -561.231)" fill="#49655c" fill-rule="evenodd"/>
      <path id="Path_269" data-name="Path 269" d="M376.323,612.88a2.615,2.615,0,1,1-3.7,0,2.615,2.615,0,0,1,3.7,0" transform="translate(-196.28 -553.084)" fill="#49655c" fill-rule="evenodd"/>
      <path id="Path_270" data-name="Path 270" d="M351.173,593.644a2.616,2.616,0,1,1-3.573.957,2.616,2.616,0,0,1,3.573-.957" transform="translate(-188.113 -546.838)" fill="#49655c" fill-rule="evenodd"/>
      <path id="Path_271" data-name="Path 271" d="M321.9,581.573a2.616,2.616,0,1,1-3.2,1.849,2.615,2.615,0,0,1,3.2-1.849" transform="translate(-178.607 -542.918)" fill="#49655c" fill-rule="evenodd"/>
      <rect id="Rectangle_7" data-name="Rectangle 7" width="1.924" height="138.217" transform="translate(57.876 92.261) rotate(-67.5)" fill="#49655c"/>
      <rect id="Rectangle_8" data-name="Rectangle 8" width="138.217" height="1.924" transform="matrix(0.383, -0.924, 0.924, 0.383, 94.756, 181.299)" fill="#49655c"/>
    </g>
    <g id="BgPic2">
      <path id="Path_311" data-name="Path 311" d="M-91.259,383.253c1.878,2.653,5.194,5.264,5.063,7.687-.155,2.858-2.708,6.53-5.285,8.079-3.378,2.03-7.795,2.33-11.765,3.374l-.4-1.306c.763-.306,1.543-.575,2.285-.923a105.988,105.988,0,0,0,10.05-4.915c1.018-.618,1.991-3.016,1.561-3.928-.685-1.451-2.5-2.436-3.973-3.412-.5-.33-1.456.125-2.121-.066a32.271,32.271,0,0,1-3.345-1.344,12.646,12.646,0,0,1,1.574-3.315c3.859-4.25,8.9-4.305,14.069-3.6a9.194,9.194,0,0,1,3.739,1.046c5.556,3.643,10.272.844,14.707-2.092,1.447-.958,2.962-3.768,2.525-5.1-.491-1.492-3.084-2.425-4.9-3.306a21.055,21.055,0,0,0-4.2-1.08c.872-1.548,1.411-3.484,2.678-4.574,3.961-3.41,8.885-3.611,13.524-2.242,11.373,3.358,19.4,11.212,26.193,20.574-10.7-7.832-20.13-18.23-35.258-16.7,3.492,1.992,6.517,4.137,5.814,8.733s-5.982,8.112-10.928,8.746l14.682,15.284L-56.942,401q-2.086-1.853-4.171-3.706c-7.06-6.31-14.627-11.814-24.054-13.963C-87.387,382.822-89.82,383.253-91.259,383.253Z" transform="translate(1469.718 -66.221)" fill="#49655c"/>
      <g id="Group_46" data-name="Group 46" transform="translate(367.629 256.722)">
        <path id="Path_327" data-name="Path 327" d="M-91.259,383.253c1.878,2.653,5.194,5.264,5.063,7.687-.155,2.858-2.708,6.53-5.285,8.079-3.378,2.03-7.795,2.33-11.765,3.374l-.4-1.306c.763-.306,1.543-.575,2.285-.923a105.988,105.988,0,0,0,10.05-4.915c1.018-.618,1.991-3.016,1.561-3.928-.685-1.451-2.5-2.436-3.973-3.412-.5-.33-1.456.125-2.121-.066a32.271,32.271,0,0,1-3.345-1.344,12.646,12.646,0,0,1,1.574-3.315c3.859-4.25,8.9-4.305,14.069-3.6a9.194,9.194,0,0,1,3.739,1.046c5.556,3.643,10.272.844,14.707-2.092,1.447-.958,2.962-3.768,2.525-5.1-.491-1.492-3.084-2.425-4.9-3.306a21.055,21.055,0,0,0-4.2-1.08c.872-1.548,1.411-3.484,2.678-4.574,3.961-3.41,8.885-3.611,13.524-2.242,11.373,3.358,19.4,11.212,26.193,20.574-10.7-7.832-20.13-18.23-35.258-16.7,3.492,1.992,6.517,4.137,5.814,8.733s-5.982,8.112-10.928,8.746l14.682,15.284L-56.942,401q-2.086-1.853-4.171-3.706c-7.06-6.31-14.627-11.814-24.054-13.963C-87.387,382.822-89.82,383.253-91.259,383.253Z" transform="translate(128.8 -343.213)" fill="#49655c"/>
        <path id="Path_330" data-name="Path 330" d="M-215.59,437.846c-10.878-7.883-20.471-17.794-35.6-16.671,7.119,2.881,6.7,8.259,4.25,14.175l-15.409,4.867q-.27-.8-.54-1.608c2.438-.874,4.924-1.635,7.3-2.661,1.7-.736,3.608-1.516,4.771-2.846,1.059-1.211,2.051-3.489,1.586-4.747-.489-1.322-2.678-2.128-4.257-2.883-.687-.329-1.727.177-2.567.045-2.534-.4-3.3-1.643-1.559-3.821,4.215-5.264,9.886-5.665,15.766-4.218,9.221,2.269,15.795,8.672,22.213,15.15A52.819,52.819,0,0,1-215.59,437.846Z" transform="translate(262.894 -416.755)" fill="#49655c"/>
      </g>
      <path id="Path_345" data-name="Path 345" d="M-91.259,383.253c1.878,2.653,5.194,5.264,5.063,7.687-.155,2.858-2.708,6.53-5.285,8.079-3.378,2.03-7.795,2.33-11.765,3.374l-.4-1.306c.763-.306,1.543-.575,2.285-.923a105.988,105.988,0,0,0,10.05-4.915c1.018-.618,1.991-3.016,1.561-3.928-.685-1.451-2.5-2.436-3.973-3.412-.5-.33-1.456.125-2.121-.066a32.271,32.271,0,0,1-3.345-1.344,12.646,12.646,0,0,1,1.574-3.315c3.859-4.25,8.9-4.305,14.069-3.6a9.194,9.194,0,0,1,3.739,1.046c5.556,3.643,10.272.844,14.707-2.092,1.447-.958,2.962-3.768,2.525-5.1-.491-1.492-3.084-2.425-4.9-3.306a21.055,21.055,0,0,0-4.2-1.08c.872-1.548,1.411-3.484,2.678-4.574,3.961-3.41,8.885-3.611,13.524-2.242,11.373,3.358,19.4,11.212,26.193,20.574-10.7-7.832-20.13-18.23-35.258-16.7,3.492,1.992,6.517,4.137,5.814,8.733s-5.982,8.112-10.928,8.746l14.682,15.284L-56.942,401q-2.086-1.853-4.171-3.706c-7.06-6.31-14.627-11.814-24.054-13.963C-87.387,382.822-89.82,383.253-91.259,383.253Z" transform="translate(606.493 191.242)" fill="#49655c"/>
      <path id="Path_328" data-name="Path 328" d="M-215.59,437.846c-10.878-7.883-20.471-17.794-35.6-16.671,7.119,2.881,6.7,8.259,4.25,14.175l-15.409,4.867q-.27-.8-.54-1.608c2.438-.874,4.924-1.635,7.3-2.661,1.7-.736,3.608-1.516,4.771-2.846,1.059-1.211,2.051-3.489,1.586-4.747-.489-1.322-2.678-2.128-4.257-2.883-.687-.329-1.727.177-2.567.045-2.534-.4-3.3-1.643-1.559-3.821,4.215-5.264,9.886-5.665,15.766-4.218,9.221,2.269,15.795,8.672,22.213,15.15A52.819,52.819,0,0,1-215.59,437.846Z" transform="translate(506.875 83.854)" fill="#49655c"/>
      <path id="Path_350" data-name="Path 350" d="M-215.59,437.846c-10.878-7.883-20.471-17.794-35.6-16.671,7.119,2.881,6.7,8.259,4.25,14.175l-15.409,4.867q-.27-.8-.54-1.608c2.438-.874,4.924-1.635,7.3-2.661,1.7-.736,3.608-1.516,4.771-2.846,1.059-1.211,2.051-3.489,1.586-4.747-.489-1.322-2.678-2.128-4.257-2.883-.687-.329-1.727.177-2.567.045-2.534-.4-3.3-1.643-1.559-3.821,4.215-5.264,9.886-5.665,15.766-4.218,9.221,2.269,15.795,8.672,22.213,15.15A52.819,52.819,0,0,1-215.59,437.846Z" transform="translate(1715.019 443.597)" fill="#49655c"/>
      <g id="Group_47" data-name="Group 47" transform="translate(503.091 93.169)">
        <path id="Path_318" data-name="Path 318" d="M13.576,0c7.135,10.146,17.113,19.162,15.7,23.4C26.22,32.611,17.342,39.384,10.847,47.154,7.017,43.029-.6,37.773.037,34.981,2.4,24.55,7.475,14.931,13.576,0Z" transform="translate(881.971 146.858) rotate(-79)" opacity="0.43"/>
        <path id="Path_321" data-name="Path 321" d="M21.509,138.965c-7.276-7.5-15.335-14.512-21.254-22.871-1.408-1.987,3.3-9.7,7.094-12.641,4.615-3.578,11.23-4.889,16.876-7.137-2.3-7.8-4.28-14.489-6.6-22.352,7.508-1.236,13.022-2.146,18.865-3.108C42.436,57.745,44.4,46.02,29.521,36.551c-4.033-2.562-7.611-13-5.792-14.718C31.846,14.167,41.994,8.349,54.119,0c2.731,23.391,4.854,41.582,7.532,64.515,17-17.384,30.746-31.436,46.483-47.528C115.116,27.218,121.35,36.351,126.5,43.9,109.936,55.472,95.628,65.121,81.743,75.282c-10.454,7.647-9.917,16.32-2.223,24.947,4.523,5.069,10.1,9.567,13.417,15.27,12.466,21.473,5.018,32.166-22.573,32.969q-4.157-26.018-8.339-52.174l-5.263-1.8c-6.4,8.436-12.612,17-19.267,25.264-3.4,4.224-7.6,7.916-11.376,11.8C24.62,133.993,23.065,136.477,21.509,138.965Z" transform="matrix(-0.966, -0.259, 0.259, -0.966, 870.27, 176.151)" opacity="0.43"/>
        <path id="Path_346" data-name="Path 346" d="M45.9,543.867c11.369-8.374,15.008-26.5,34.32-17.072,3.6,1.758,6.685,11.211,4.744,14.49C78.091,552.9,60.877,554.178,45.9,543.867Z" transform="translate(0.259 123.217)" opacity="0.43"/>
        <path id="Path_319" data-name="Path 319" d="M0,19.721c11.369-8.374,15.008-26.5,34.32-17.072,3.6,1.758,6.685,11.211,4.744,14.49C32.191,28.753,14.977,30.032,0,19.721Z" transform="translate(1192.745 341.051) rotate(180)" opacity="0.43"/>
        <path id="Path_338" data-name="Path 338" d="M0,20.906C11.479,12,15.711-6.58,34.357,2.382c3.474,1.671,6.167,11.2,4.14,14.6C31.321,29.037,14.352,30.91,0,20.906Z" transform="matrix(-0.891, -0.454, 0.454, -0.891, 666.774, 678.695)" opacity="0.43"/>
        <path id="Path_347" data-name="Path 347" d="M49.8,535.009c7.579,9.235,18.265,17.385,16.661,21.313-3.475,8.528-13.23,14.9-20.414,22.158-4.091-3.74-12.273-8.464-11.536-11.045C37.253,557.791,42.92,548.854,49.8,535.009Z" transform="translate(-26.597 145.74)" opacity="0.43"/>
        <path id="Path_316" data-name="Path 316" d="M15.335,0C22.914,9.235,33.6,17.385,32,21.313c-3.475,8.528-13.23,14.9-20.414,22.158C7.492,39.731-.69,35.007.047,32.426,2.792,22.782,8.459,13.845,15.335,0Z" transform="translate(1231.04 307.666) rotate(180)" opacity="0.43"/>
        <path id="Path_322" data-name="Path 322" d="M16.212,0C23.09,9.309,33.006,17.361,31.288,21.517,27.566,30.541,17.9,37.579,10.666,45.43,6.9,41.7-.762,37.117.061,34.4,3.131,24.241,8.981,14.7,16.212,0Z" transform="translate(886.11 362.239) rotate(43)" opacity="0.43"/>
        <path id="Path_315" data-name="Path 315" d="M13.155,0c7.419,10.141,17.7,19.224,16.347,23.376C26.561,32.394,17.671,38.9,11.216,46.428,7.257,42.287-.563,36.958.032,34.218,2.25,23.981,7.226,14.6,13.155,0Z" transform="matrix(-0.454, 0.891, -0.891, -0.454, 1241.692, 215.111)" opacity="0.43"/>
        <path id="Path_336" data-name="Path 336" d="M16.261,0c7.117,9.154,17.328,17.1,15.61,21.153C28.146,29.953,18.326,36.768,11,44.4,7.115,40.722-.758,36.183.059,33.53,3.106,23.617,9,14.328,16.261,0Z" transform="matrix(-0.891, -0.454, 0.454, -0.891, 717.967, 664.843)" opacity="0.43"/>
        <path id="Path_334" data-name="Path 334" d="M131.6,502.8c-.506,11.552,2.142,24.072-1.808,26.181-8.573,4.579-20.518,3.842-31.086,5.277-.583-5.27-3.659-13.682-1.306-15.255C106.176,513.141,116.731,509.518,131.6,502.8Z" transform="translate(119.112 78.968)" opacity="0.43"/>
        <path id="Path_323" data-name="Path 323" d="M35.074,0c-.506,11.552,2.142,24.073-1.808,26.181C24.693,30.76,12.749,30.022,2.18,31.457,1.6,26.187-1.479,17.775.875,16.2,9.649,10.338,20.2,6.715,35.074,0Z" transform="translate(1023.265 406.642) rotate(180)" opacity="0.43"/>
        <path id="Path_343" data-name="Path 343" d="M78.706,528.06c8.694-12.972,18.643-21.894,35.147-16.719,2.1.661,3.418,13.424.449,15.919C103.921,535.982,91.524,539.476,78.706,528.06Z" transform="translate(77.275 93.573)" opacity="0.43"/>
        <path id="Path_324" data-name="Path 324" d="M0,18.213C8.694,5.241,18.643-3.681,35.147,1.494c2.1.661,3.418,13.424.449,15.919C25.215,26.135,12.818,29.629,0,18.213Z" transform="translate(1082.922 384.995) rotate(180)" opacity="0.43"/>
        <path id="Path_339" data-name="Path 339" d="M0,19.427C9.016,5.928,19.119-3.488,35.157,1.235c2.043.6,2.875,13.558-.134,16.2C24.5,26.659,12.189,30.629,0,19.427Z" transform="matrix(-0.891, -0.454, 0.454, -0.891, 547.114, 672.104)" opacity="0.43"/>
        <path id="Path_335" data-name="Path 335" d="M147.125,525.034c-11.7-5.916-28.612,7.9-33.313-10.827-.509-2.031,10.334-8.8,16.367-9.386C142.465,503.632,153.248,506.678,147.125,525.034Z" transform="translate(159.653 82.684)" opacity="0.43"/>
        <path id="Path_325" data-name="Path 325" d="M33.33,20.439C21.626,14.523,4.717,28.343.017,9.612-.492,7.58,10.352.81,16.384.226,28.67-.963,39.453,2.082,33.33,20.439Z" transform="translate(965.457 401.135) rotate(180)" opacity="0.43"/>
        <path id="Path_337" data-name="Path 337" d="M130.949,515.832c6.334-1.838,13.829-6.58,18.757-4.914,10.495,3.54,27.394,6.592,12.2,25.846-9.785-4.462-20.153-9.2-30.521-13.925Q131.167,519.336,130.949,515.832Z" transform="translate(199.924 95.071)" opacity="0.43"/>
        <path id="Path_342" data-name="Path 342" d="M199.977,542.874c-11.7-5.916-28.613,7.9-33.313-10.83-.509-2.031,10.331-8.8,16.367-9.383C195.317,521.472,206.1,524.518,199.977,542.874Z" transform="translate(283.731 119.671)" opacity="0.43"/>
        <path id="Path_340" data-name="Path 340" d="M182.711,545.625c-14.941-6.521-25.164-10.744-34.873-15.806-.586-.3,3.384-10.732,4.509-10.612,9.574,1.005,19.507,2.32,28.12,5.956C183.025,526.242,181.743,534.989,182.711,545.625Z" transform="translate(239.436 112.977)" opacity="0.43"/>
        <path id="Path_344" data-name="Path 344" d="M103.97,531.933c-15.831,4.41-26.49,7.6-37.38,9.856-.656.138-5.363-10.028-4.446-10.633,7.82-5.172,16.129-10.335,25.164-12.969C89.991,517.4,95.454,524.665,103.97,531.933Z" transform="translate(38.118 110.741)" opacity="0.43"/>
        <path id="Path_320" data-name="Path 320" d="M41.944,13.8c-15.831,4.41-26.49,7.6-37.38,9.856C3.908,23.8-.8,13.633.118,13.027,7.938,7.855,16.247,2.692,25.282.058,27.964-.725,33.427,6.537,41.944,13.8Z" transform="translate(1138.759 359.545) rotate(180)" opacity="0.43"/>
        <path id="Path_341" data-name="Path 341" d="M41.221,13.521C25.5,18.538,14.9,22.143,4.117,24.8c-.65.163-4.91-10.035-3.986-10.682C8.005,8.59,16.36,3.056,25.338.074,28-.813,33.111,6.4,41.221,13.521Z" transform="matrix(-0.891, -0.454, 0.454, -0.891, 609.309, 672.597)" opacity="0.43"/>
        <path id="Path_349" data-name="Path 349" d="M52.851,556.332c-5.112,13.587,15.135,32.945-17.689,33.956-.994-10.483-1.945-20.464-3.05-32.1C38.345,557.629,43.792,557.143,52.851,556.332Z" transform="translate(-32.112 189.947)" opacity="0.43"/>
        <path id="Path_326" data-name="Path 326" d="M20.031,0C14.509,14.36,33.121,33.694,1.5,36.09,1.014,25.212.544,14.855,0,2.781,6.021,1.944,11.281,1.215,20.031,0Z" transform="translate(832.834 406.019) rotate(43)" opacity="0.43"/>
        <path id="Path_312" data-name="Path 312" d="M19.322,0C15.034,14.38,34.662,35.782,4.011,35.777,2.7,24.518,1.453,13.8,0,1.3,5.807.908,10.882.568,19.322,0Z" transform="matrix(-0.454, 0.891, -0.891, -0.454, 1182.007, 177.853)" opacity="0.43"/>
        <path id="Path_333" data-name="Path 333" d="M20.455,0C14.939,14.006,34.144,33.049,1.839,35.168,1.24,24.525.666,14.391,0,2.578,6.148,1.8,11.52,1.127,20.455,0Z" transform="matrix(-0.891, -0.454, 0.454, -0.891, 756.304, 609.387)" opacity="0.43"/>
        <path id="Path_317" data-name="Path 317" d="M19.07,0C14.589,14.677,33.56,36.012,3.346,36.606,2.255,25.206,1.212,14.351,0,1.7,5.732,1.186,10.74.742,19.07,0Z" transform="translate(950.524 166.971) rotate(-79)" opacity="0.43"/>
        <path id="Path_348" data-name="Path 348" d="M61.02,606.955l-21.258,2.164c2.678-12.594-18.01-28.753,12.9-34.6C55.3,584.757,57.79,594.413,61.02,606.955Z" transform="translate(-24.29 227.661)" opacity="0.43"/>
        <path id="Path_329" data-name="Path 329" d="M23.728,33.437,3.184,36.56C6.321,23.333-12.859,7.349,17.135,0,19.217,10.551,21.179,20.506,23.728,33.437Z" transform="translate(799.005 453.661) rotate(43)" opacity="0.43"/>
        <path id="Path_313" data-name="Path 313" d="M24.639,35.008,4.843,36.62C6.891,23.222-13.034,5.231,15.655,0,18.491,11.047,21.165,21.47,24.639,35.008Z" transform="matrix(-0.454, 0.891, -0.891, -0.454, 1122.616, 161.985)" opacity="0.43"/>
        <path id="Path_331" data-name="Path 331" d="M24.434,32.751,3.457,35.66C6.545,22.745-13.21,6.975,17.391,0,19.614,10.335,21.711,20.086,24.434,32.751Z" transform="matrix(-0.891, -0.454, 0.454, -0.891, 774.416, 555)" opacity="0.43"/>
        <path id="Path_314" data-name="Path 314" d="M23.89,35.351,4.348,37.374C6.6,23.737-12.72,5.87,15.652,0,18.253,11.155,20.705,21.68,23.89,35.351Z" transform="translate(1012.412 167.403) rotate(-79)" opacity="0.43"/>
      </g>
      <path id="Path_332" data-name="Path 332" d="M-91.259,383.253c1.878,2.653,5.194,5.264,5.063,7.687-.155,2.858-2.708,6.53-5.285,8.079-3.378,2.03-7.795,2.33-11.765,3.374l-.4-1.306c.763-.306,1.543-.575,2.285-.923a105.988,105.988,0,0,0,10.05-4.915c1.018-.618,1.991-3.016,1.561-3.928-.685-1.451-2.5-2.436-3.973-3.412-.5-.33-1.456.125-2.121-.066a32.271,32.271,0,0,1-3.345-1.344,12.646,12.646,0,0,1,1.574-3.315c3.859-4.25,8.9-4.305,14.069-3.6a9.194,9.194,0,0,1,3.739,1.046c5.556,3.643,10.272.844,14.707-2.092,1.447-.958,2.962-3.768,2.525-5.1-.491-1.492-3.084-2.425-4.9-3.306a21.055,21.055,0,0,0-4.2-1.08c.872-1.548,1.411-3.484,2.678-4.574,3.961-3.41,8.885-3.611,13.524-2.242,11.373,3.358,19.4,11.212,26.193,20.574-10.7-7.832-20.13-18.23-35.258-16.7,3.492,1.992,6.517,4.137,5.814,8.733s-5.982,8.112-10.928,8.746l14.682,15.284L-56.942,401q-2.086-1.853-4.171-3.706c-7.06-6.31-14.627-11.814-24.054-13.963C-87.387,382.822-89.82,383.253-91.259,383.253Z" transform="translate(1732.911 191.494)" fill="#49655c"/>
    </g>
  </g>
</svg>
