<svg id="Logo_Text" data-name="Logo Text" xmlns="http://www.w3.org/2000/svg" width="502.127" height="131" viewBox="0 0 502.127 131">
  <g id="Group_34" data-name="Group 34" transform="translate(0)">
    <path id="Path_199" data-name="Path 199" d="M173.984,281.419V290.5H156.032v40.485H143.684V290.5H125.732v-9.081Z" transform="translate(-125.732 -281.419)" fill="#f0750f"/>
    <path id="Path_200" data-name="Path 200" d="M149.2,285.871v9.577h.14q4.575-10.29,10.682-10.287,2.906,0,6.987,3.05l-2.906,9.331q-3.9-2.482-6.244-2.484-3.658,0-6.158,4.528t-2.5,5.279v14.5H138.66V285.871Z" transform="translate(-85.588 -269.799)" fill="#f0750f"/>
    <path id="Path_201" data-name="Path 201" d="M181.882,308.967V315.6q-6.035,4.4-14.939,4.4-8.836,0-14.126-4.741a16.048,16.048,0,0,1-5.283-12.554A17.005,17.005,0,0,1,152.5,290.1a17.212,17.212,0,0,1,12.669-4.938,16.733,16.733,0,0,1,12.681,5.2q4.951,5.2,4.631,13.925H158.425a9.6,9.6,0,0,0,3.231,7.016,11.7,11.7,0,0,0,7.808,2.459Q175.381,313.758,181.882,308.967Zm-23.243-10.218h14.549q-.856-7.309-7.274-7.307Q159.416,291.442,158.639,298.749Z" transform="translate(-58.033 -269.799)" fill="#f0750f"/>
    <path id="Path_202" data-name="Path 202" d="M195.159,311.093v5.858a19.787,19.787,0,0,1-9.865,3.05q-4.969,0-5.891-3.76A19.417,19.417,0,0,1,168.369,320a9.524,9.524,0,0,1-6.634-2.471A7.521,7.521,0,0,1,159,311.791a9.274,9.274,0,0,1,2.824-7.053q2.82-2.679,17.082-6.913.357-5.6-5.817-5.6-6.706,0-12.348,5.6v-8.584a27.039,27.039,0,0,1,14.512-4.081q14.187,0,14.192,10.193v15.279q0,2.346,1.741,2.344Q192.5,312.978,195.159,311.093Zm-16.252.14v-8.12a29.471,29.471,0,0,0-7.254,3.329,4.512,4.512,0,0,0-1.97,3.756,3.531,3.531,0,0,0,.993,2.508,3.189,3.189,0,0,0,2.414,1.051A8.734,8.734,0,0,0,178.907,311.233Z" transform="translate(-22.426 -269.799)" fill="#f0750f"/>
    <path id="Path_203" data-name="Path 203" d="M194.932,287.645v7.484q-6.035-3.689-11.174-3.686-3.8,0-3.8,2.586a1.808,1.808,0,0,0,.8,1.334,36.97,36.97,0,0,0,6.117,2.771q5.32,2.124,7.525,4.893a9.568,9.568,0,0,1,2.2,6.072,9.733,9.733,0,0,1-3.547,8.062Q189.5,320,182.941,320a28.119,28.119,0,0,1-12-2.447v-7.418q6.459,2.845,10.825,2.841,5.1,0,5.107-2.475a2.446,2.446,0,0,0-.944-1.806q-.948-.85-6.334-2.96t-7.377-4.627a9.082,9.082,0,0,1,1.831-13.071q3.812-2.882,10.058-2.878A23.263,23.263,0,0,1,194.932,287.645Z" transform="translate(12.457 -269.799)" fill="#f0750f"/>
    <path id="Path_204" data-name="Path 204" d="M203.062,318.828v-4.791q-4.649,5.425-10.821,5.427a12.061,12.061,0,0,1-8.871-3.37q-3.405-3.368-3.4-9.331V285.334H190.5v20.694q0,6.373,5.283,6.375a6.644,6.644,0,0,0,5.094-2.319q2.112-2.322,2.11-3.42v-21.33H213.6v33.494Z" transform="translate(42.674 -269.262)" fill="#f0750f"/>
    <path id="Path_205" data-name="Path 205" d="M202.663,285.871v9.577h.144q4.575-10.29,10.673-10.287c1.946,0,4.269,1.018,6.991,3.05l-2.906,9.331q-3.9-2.482-6.248-2.484-3.645,0-6.154,4.528t-2.5,5.279v14.5H192.125V285.871Z" transform="translate(80.429 -269.799)" fill="#f0750f"/>
    <path id="Path_206" data-name="Path 206" d="M235.343,308.967V315.6q-6.028,4.4-14.935,4.4-8.836,0-14.122-4.741A16.051,16.051,0,0,1,201,302.706a17.021,17.021,0,0,1,4.967-12.607,17.218,17.218,0,0,1,12.669-4.938,16.748,16.748,0,0,1,12.685,5.2q4.945,5.2,4.627,13.925H211.894a9.612,9.612,0,0,0,3.227,7.016,11.7,11.7,0,0,0,7.8,2.459Q228.855,313.758,235.343,308.967Zm-23.235-10.218h14.545q-.85-7.309-7.274-7.307Q212.888,291.442,212.108,298.749Z" transform="translate(107.985 -269.799)" fill="#f0750f"/>
    <path id="Path_207" data-name="Path 207" d="M232.363,281.419v49.566H220.019V281.419Z" transform="translate(167.045 -281.419)" fill="#f0750f"/>
    <path id="Path_208" data-name="Path 208" d="M237.832,285.871v4.754q4.649-5.462,10.891-5.464a12.126,12.126,0,0,1,8.715,3.337q3.491,3.338,3.489,9.557v21.31H250.39V298.938q0-6.718-5.214-6.716-3.725,0-7.344,5.534v21.61H227.294V285.871Z" transform="translate(189.635 -269.799)" fill="#f0750f"/>
    <path id="Path_209" data-name="Path 209" d="M269.757,310.211v7.554A33.423,33.423,0,0,1,258.439,320q-8.836,0-14.122-4.741a16.038,16.038,0,0,1-5.287-12.554,16.437,16.437,0,0,1,5.337-12.591q5.345-4.957,13.613-4.955a32.548,32.548,0,0,1,11.281,2.2V295.2a18.741,18.741,0,0,0-8.588-2.233,10.681,10.681,0,0,0-7.558,2.627,9.125,9.125,0,0,0-2.837,7.036,9.6,9.6,0,0,0,2.767,7.163,9.924,9.924,0,0,0,7.274,2.722Q263.651,312.518,269.757,310.211Z" transform="translate(226.077 -269.799)" fill="#f0750f"/>
  </g>
  <g id="Group_36" data-name="Group 36" transform="translate(10.456 97.695)">
    <g id="Group_35" data-name="Group 35">
      <path id="Path_210" data-name="Path 210" d="M128.279,305.217H142.5q5.086,0,7.993,2.447a7.354,7.354,0,0,1,2.907,5.784q0,4.28-4.5,6.564a9.486,9.486,0,0,1,5.189,3.153,8.213,8.213,0,0,1,1.8,5.279,9.01,9.01,0,0,1-2.943,6.971Q150,338.1,144.285,338.1H128.279Zm8.194,6.026v7.036h4.282a4.39,4.39,0,0,0,3.083-1.014,3.287,3.287,0,0,0,1.108-2.537,3.2,3.2,0,0,0-1.108-2.5,4.478,4.478,0,0,0-3.083-.985Zm0,13.063v7.767h4.61a9.186,9.186,0,0,0,4.709-.907,3.418,3.418,0,0,0,1.433-3.14,3.2,3.2,0,0,0-1.363-2.722,6.055,6.055,0,0,0-3.649-1Z" transform="translate(-128.279 -305.217)" fill="#933700"/>
      <path id="Path_211" data-name="Path 211" d="M149.76,307.7a13.305,13.305,0,0,1,8.863,3.063,10.544,10.544,0,0,1,3.637,8.531,10.359,10.359,0,0,1-3.695,8.506,13.492,13.492,0,0,1-8.806,3.017,12.9,12.9,0,0,1-9.048-3.214,10.806,10.806,0,0,1-3.518-8.354,10.608,10.608,0,0,1,3.588-8.387A13.1,13.1,0,0,1,149.76,307.7Zm0,18.97q5.012,0,5.017-7.566,0-7.235-5.017-7.237a4.349,4.349,0,0,0-3.752,1.909,9.393,9.393,0,0,0-1.355,5.472Q144.653,326.673,149.76,326.669Z" transform="translate(-100.596 -297.51)" fill="#933700"/>
      <path id="Path_212" data-name="Path 212" d="M152.652,308.175v6.351h.094q3.03-6.823,7.081-6.827a8.327,8.327,0,0,1,4.639,2.024l-1.929,6.195a8.539,8.539,0,0,0-4.146-1.65q-2.42,0-4.08,3a15.241,15.241,0,0,0-1.659,3.5v9.618h-6.991V308.175Z" transform="translate(-74.305 -297.51)" fill="#933700"/>
      <path id="Path_213" data-name="Path 213" d="M159.043,308.175v3.149a9.261,9.261,0,0,1,7.229-3.625,8.03,8.03,0,0,1,5.776,2.217,8.361,8.361,0,0,1,2.319,6.338v14.138h-6.991V316.841q0-4.458-3.461-4.458-2.469,0-4.873,3.674v14.335h-6.991V308.175Z" transform="translate(-54.46 -297.51)" fill="#933700"/>
      <path id="Path_214" data-name="Path 214" d="M194.379,305.217v6.026H182.47V338.1h-8.19V311.243H162.371v-6.026Z" transform="translate(-22.418 -305.217)" fill="#933700"/>
      <path id="Path_215" data-name="Path 215" d="M182.731,307.7a13.306,13.306,0,0,1,8.863,3.063,10.557,10.557,0,0,1,3.637,8.531,10.362,10.362,0,0,1-3.7,8.506,13.481,13.481,0,0,1-8.8,3.017,12.884,12.884,0,0,1-9.048-3.214,10.8,10.8,0,0,1-3.522-8.354,10.608,10.608,0,0,1,3.588-8.387A13.108,13.108,0,0,1,182.731,307.7Zm0,18.97q5.012,0,5.012-7.566,0-7.235-5.012-7.237a4.361,4.361,0,0,0-3.756,1.909,9.394,9.394,0,0,0-1.351,5.472Q177.624,326.673,182.731,326.669Z" transform="translate(1.772 -297.51)" fill="#933700"/>
      <path id="Path_216" data-name="Path 216" d="M215.983,305.217V338.1h-8.19V324.8H191.41v13.3h-8.19V305.217h8.19v13.2h16.384v-13.2Z" transform="translate(42.322 -305.217)" fill="#933700"/>
      <path id="Path_217" data-name="Path 217" d="M209.3,330.032v-3.181a9.217,9.217,0,0,1-7.176,3.6,8,8,0,0,1-5.887-2.237,8.315,8.315,0,0,1-2.258-6.191V307.815h6.991v13.724q0,4.237,3.506,4.232a4.411,4.411,0,0,0,3.379-1.539q1.4-1.539,1.4-2.27V307.815h7.036v22.217Z" transform="translate(75.718 -297.15)" fill="#933700"/>
      <path id="Path_218" data-name="Path 218" d="M208.986,308.175v3.149a9.252,9.252,0,0,1,7.221-3.625,8.034,8.034,0,0,1,5.78,2.217,8.346,8.346,0,0,1,2.319,6.338v14.138h-6.991V316.841q0-4.458-3.461-4.458-2.469,0-4.869,3.674v14.335H202V308.175Z" transform="translate(100.622 -297.51)" fill="#933700"/>
      <path id="Path_219" data-name="Path 219" d="M227.717,313.1v4.774h-8.1v9.155a3.626,3.626,0,0,0,.907,2.6,3.285,3.285,0,0,0,2.5.957,10.343,10.343,0,0,0,4.684-1.3v5.058a16.773,16.773,0,0,1-6.47,1.392,8.953,8.953,0,0,1-6.359-2.118q-2.254-2.118-2.258-6.215v-9.532h-3.177v-1.363l9.3-10.4h.87V313.1Z" transform="translate(123.78 -302.438)" fill="#933700"/>
    </g>
  </g>
  <rect id="Rectangle_3" data-name="Rectangle 3" width="500.68" height="4.105" transform="translate(1.447 70.71)" fill="#f0a150"/>
</svg>
