<svg xmlns="http://www.w3.org/2000/svg" xmlns:xlink="http://www.w3.org/1999/xlink" width="521.179" height="298.864" viewBox="0 0 521.179 298.864">
  <defs>
    <filter id="Background" x="0" y="0" width="521.179" height="298.864" filterUnits="userSpaceOnUse">
      <feOffset dy="3" input="SourceAlpha"/>
      <feGaussianBlur stdDeviation="3" result="blur"/>
      <feFlood flood-opacity="0.502"/>
      <feComposite operator="in" in2="blur"/>
      <feComposite in="SourceGraphic"/>
    </filter>
  </defs>
  <g id="OrganizerAvatarsIcon" transform="translate(-1142 -1685)">
    <g transform="matrix(1, 0, 0, 1, 1142, 1685)" filter="url(#Background)">
      <ellipse id="Background-2" data-name="Background" cx="251.59" cy="140.432" rx="251.59" ry="140.432" transform="translate(9 6)" fill="#49655c"/>
    </g>
    <g id="Group_42" data-name="Group 42" transform="translate(1220.17 1753.109)">
      <path id="Path_11" data-name="Path 11" d="M235.325,248s-3.988.243-10.214.632h0c-.389,0-.778.049-1.167.049-.632.049-1.265.1-1.946.1l-.973-12.5s-6.177-19.407-12.549-13.473a2.073,2.073,0,0,0-.535.584v-12.5h-.292l1.9-1.313c.875-.632,1.7-1.265,2.529-1.848a47.574,47.574,0,0,0,7.2-6.469c3.453-4.523,5.545-16.246,5.545-16.246s5.545-5.545,5.2-10.02a5.554,5.554,0,0,0-1.946-3.843l-3.453,7.491s-.1-4.475-.049-9.533a.17.17,0,0,1-.1-.049s.049-.292.1-.827a47.287,47.287,0,0,0,.049-6.129v-.146c-.049-.292-.049-.584-.1-.876-.876-5.107-9.971,2.043-14.932.973-5.253-1.119-12.014-20.623-12.014-20.623s-3.745-6.372-7.88,0-8.269,21.353-14.251,22.131a35.627,35.627,0,0,1-12.16-1.021,2.107,2.107,0,0,1-.049.243c-.292,1.946-.535,4.037-.73,6.226v8.026l-4.718-6.469a6.009,6.009,0,0,0-2.189,4.961c0,6.566,6.907,10.749,6.907,10.749s-1.362,10.749,7.3,18c1.411,1.216,2.821,2.335,4.232,3.453.73.584,1.459,1.167,2.189,1.7,1.167.924,2.383,1.8,3.551,2.578h-.292l-.146,1.265-.049.632-.681,5.788-.292,2.627s-4.718.827-2.87,2.918c-1.07.34-2.383.73-3.94,1.07-3.4.827,2.14,16.051-2.432,16.051a47.546,47.546,0,0,0-5.2.632c-3.453.584-7.442,1.411-8.171,2.092,0-.584-.778-16.586-.778-17.219.243-18.483-4.134-42.511-2.578-49.418,2.237-10.117-6.372-45.77,22.52-53.6A40.38,40.38,0,0,1,195.1,119.2c11.625,0,24.757,8.609,29.232,14.981,4.523,6.372,9.339,32.248,5.788,50.634s-1.946,29.233-1.946,29.233l.681,7.685h0L229.877,230l4.475,14.835Z" transform="translate(-112.612 -119.2)" fill="#605343"/>
      <path id="Path_12" data-name="Path 12" d="M235.085,296.9v2.772s-1.7,1.459-4.134,3.4c-4.134,3.308-10.409,8.026-14.057,9.193-3.453,1.119-9.971-3.648-14.64-7.588-3.064-2.578-5.253-4.815-5.253-4.815v-2.189c.632.584,1.265,1.167,1.848,1.7,6.274,5.594,12.063,9.631,16.732,9.631,3.6,0,10.555-4.669,16.537-9.582C233.139,298.6,234.161,297.727,235.085,296.9Z" transform="translate(-135.719 -210.467)" fill="#ae8d6e"/>
      <path id="Path_13" data-name="Path 13" d="M221.93,314.658c-3.745,0-8.22-2.237-13.133-5.642h-.1c4.913,3.453,9.485,5.74,13.279,5.74,3.21,0,9.193-3.21,14.689-6.956h-.195C230.977,311.5,225.091,314.658,221.93,314.658Z" transform="translate(-141.728 -216.065)" fill="#f6c49f"/>
      <path id="Path_14" data-name="Path 14" d="M222.92,221.888c3.453-4.475,5.545-16.246,5.545-16.246s5.545-5.545,5.2-10.02a5.555,5.555,0,0,0-1.946-3.843l-3.453,7.539s-.049-4.475-.049-9.533a.17.17,0,0,1-.1-.049s.049-.292.1-.827a47.276,47.276,0,0,0,.049-6.129v-.146c0-.292-.049-.584-.049-.876-.875-5.107-9.971,2.043-14.932.973-5.253-1.119-12.014-20.623-12.014-20.623s-3.745-6.372-7.88,0-8.269,21.353-14.251,22.131a35.626,35.626,0,0,1-12.16-1.021,2.1,2.1,0,0,1-.049.243c-.292,1.946-.535,4.037-.73,6.226v8.026l-4.718-6.469a6.009,6.009,0,0,0-2.189,4.961c0,6.566,6.907,10.749,6.907,10.749s-1.362,10.749,7.247,18c2.14,1.8,4.28,3.551,6.42,5.156,1.216.924,2.383,1.8,3.551,2.578h.1c4.864,3.356,9.339,5.642,13.133,5.642,3.162,0,9.047-3.162,14.495-6.858h.195l1.9-1.313C217.57,227.044,221.413,223.785,222.92,221.888Z" transform="translate(-116.356 -139.784)" fill="#f6c49f"/>
      <path id="Path_15" data-name="Path 15" d="M327.118,388.774H252.7l9.387-60.411-3.6-4.378,2.675-4.086h0l12.063,12.938s17.753,9.582,27.822,11.382c10.117,1.8,21.3,5.545,23.931,22.277C327.653,383.181,327.118,388.774,327.118,388.774Z" transform="translate(-164.327 -222.28)" fill="#c23d37"/>
      <path id="Path_16" data-name="Path 16" d="M235.894,332.678l-9.339,60.411H210.941L201.7,333.6l3.5-4.28,14.008,19.213-.486.681.632-.584-.146-.146L232.343,328.3l1.021,1.265.535.681Z" transform="translate(-138.133 -226.594)" fill="#c23d37"/>
      <path id="Path_17" data-name="Path 17" d="M143.818,390.418H71.054s-.535-5.545,2.14-22.277,13.814-20.477,23.931-22.277c8.609-1.508,22.812-8.755,26.8-10.847.681-.34,1.07-.584,1.07-.584l.1.195L135.55,323.1l2.578,3.551-3.5,4.28Z" transform="translate(-71.01 -223.923)" fill="#c23d37"/>
      <path id="Path_18" data-name="Path 18" d="M278.19,371.556l-25.341,17.219-.049.049v-.049l9.339-60.411-1.994-2.432-.535-.681-1.021-1.265h-.049l1.07-1.654,1.605-2.432h0l12.111,13.035,2.335,18.872.778,6.129-10.944,2.675Z" transform="translate(-164.379 -222.28)" fill="#ede0cf"/>
      <path id="Path_19" data-name="Path 19" d="M235.727,317.042l-1.07,1.654v.049L221.573,338.93l.146.146-.632.535.486-.681-14.008-19.213.049-.049-1.313-2.043.681-5.788.049-.632c4.621,3.94,11.187,8.707,14.64,7.588,3.6-1.167,9.874-5.885,14.057-9.193Z" transform="translate(-140.496 -216.989)" fill="#f6c49f"/>
      <path id="Path_20" data-name="Path 20" d="M194.3,389.9l-.1-.049-24.9-16.927,12.5-10.8L171,359.5l1.508-12.209,1.556-12.452.34-.389L185.983,322l1.313,1.994,1.313,2.043-.049.049-3.5,4.28,9.242,59.487Z" transform="translate(-121.492 -223.358)" fill="#ede0cf"/>
    </g>
    <g id="Group_44" data-name="Group 44" transform="matrix(1, -0.017, 0.017, 1, 1423.282, 1744.637)">
      <path id="Path_1" data-name="Path 1" d="M.045,0h0C.045.091,0,.181,0,.272V.407H0" transform="translate(14.572 79.092)" fill="none"/>
      <path id="Path_2" data-name="Path 2" d="M0,.181V5.114L17.74,27.47,36.7,5.566,36.837,0S24.8,8.96,19.233,10.5C13.712,12.038,0,.181,0,.181Z" transform="translate(57.111 89.003)" fill="#f6c49f"/>
      <path id="Path_3" data-name="Path 3" d="M.5,2.444S.407,1.493.317,0C.181.543.091,1.086,0,1.629Z" transform="translate(46.069 55.65)" fill="none"/>
      <path id="Path_4" data-name="Path 4" d="M4.211,64.067c1.991-1.267,0,0-.543-2.715a15.665,15.665,0,0,1,.362-4.118c.091-.5.181-1.041.317-1.629,1.131-5.431,3.123-12.9,3.485-15.884.543-4.48,3.937-10.318,9.5-9.051s16.518-2.4,24.618-6.879S55.077,29.4,55.077,29.4l1.946,4.48c1.946,4.48,2.806,15.93,2.806,21.27s3.077,8.372,5.023,4.435c.679-1.312.95-3.8,1.086-6.652a146.035,146.035,0,0,0-.5-15.16c-.271-3.62.543-27.108,1.4-27.108s1.4-3.62-5.883-7.558C53.674-.783,37.473-.512,26.838,1.163s-14.527,9.232-14.527,9.232-1.946-1.946-7.286,5.023C-.269,22.387,0,41.711,0,41.711c.362,3.982.724,7.558,1.041,10.59C1.948,60.4,2.763,64.972,4.211,64.067Z" transform="translate(42.039 0)" fill="#343434"/>
      <path id="Path_5" data-name="Path 5" d="M18.011,10.092c-4.525,0-10.137-3.394-16.2-8.055C1.222,1.584.588,1.086,0,.634V2.489S13.712,14.346,19.278,12.807s17.6-10.5,17.6-10.5V0c-.905.679-1.855,1.4-2.806,2.082C28.239,6.2,21.5,10.092,18.011,10.092Z" transform="translate(57.111 86.695)" fill="#ae8d6e"/>
      <path id="Path_6" data-name="Path 6" d="M71.819,32.718a5.581,5.581,0,0,0-1.9-3.756l-1.041,1.312c-.091,2.851-.407,5.34-1.086,6.652-1.946,3.892-5.023.86-5.023-4.435,0-5.34-.86-16.79-2.806-21.27l-1.946-4.48S52.993-3.3,44.892,1.13c-8.1,4.48-19.052,8.1-24.618,6.879-5.566-1.267-8.96,4.571-9.5,9.051-.362,2.987-2.4,10.454-3.485,15.884.091,1.493.181,2.444.181,2.444l-.5-.86a12.526,12.526,0,0,0-.362,4.118c.543,2.715,2.534,1.448.543,2.715C5.7,42.267,4.887,37.742,4.028,29.6l-1-1.674A5.607,5.607,0,0,0,0,32.764H0v.588a9.57,9.57,0,0,0,1.041,4.3h0A16.76,16.76,0,0,0,6.7,43.715S5.385,54.079,13.712,61.093c1.448,1.222,2.942,2.444,4.39,3.575.588.5,1.222.95,1.81,1.4,6.064,4.661,11.676,8.055,16.2,8.055,3.485,0,10.228-3.892,16.02-8.01,1-.679,1.946-1.4,2.806-2.082A37.942,37.942,0,0,0,61.5,58.061c3.349-4.344,5.34-15.7,5.34-15.7a25.187,25.187,0,0,0,3.3-4.254h0A9.664,9.664,0,0,0,71.819,32.718Z" transform="translate(39.054 22.615)" fill="#f6c49f"/>
      <path id="Path_7" data-name="Path 7" d="M156.761,65.122c-2.082-11.857-8.689-33.443-16.654-40.729C132.143,17.061,93.994.724,93.994.724l-3.8,33.76-14.934-16.7-15.613,16.7L55.844,0S16.292,20.184,9.006,26.474C1.72,32.719,0,76.933,0,76.933H158.843C158.843,76.979,158.843,76.979,156.761,65.122Z" transform="translate(0 98.28)" fill="#fcd8d6"/>
      <path id="Path_8" data-name="Path 8" d="M18.735,0V6.426l-3.847,33.76L0,23.487Z" transform="translate(75.258 92.578)" fill="#f07a75"/>
      <path id="Path_9" data-name="Path 9" d="M1.358,0,0,5.747,3.8,40.186l15.613-16.7Z" transform="translate(55.844 92.578)" fill="#f07a75"/>
      <path id="Path_10" data-name="Path 10" d="M2.353,7.92l3.575,6.7L0,59.193H19.1l-5.2-45.255,2.9-6.019L9.73,0Z" transform="translate(65.528 116.065)" fill="#723138"/>
    </g>
    <g id="Group_43" data-name="Group 43" transform="translate(1310.256 1726.966)">
      <path id="Path_30" data-name="Path 30" d="M1100.3,267.413v5.8l20.86,26.289,22.3-25.757.16-6.546s-14.155,10.537-20.7,12.346C1116.424,281.409,1100.3,267.413,1100.3,267.413Z" transform="translate(-1033.142 -160.394)" fill="#f6c49f"/>
      <path id="Path_31" data-name="Path 31" d="M1121.48,274.067c-5.321,0-11.92-3.991-19.051-9.472-.692-.532-1.437-1.118-2.129-1.65v2.182s16.124,13.943,22.67,12.133,20.7-12.346,20.7-12.346V262.2c-1.064.8-2.182,1.65-3.3,2.448C1133.56,269.491,1125.577,274.067,1121.48,274.067Z" transform="translate(-1033.142 -158.055)" fill="#ae8d6e"/>
      <path id="Path_32" data-name="Path 32" d="M1162.265,354.924l-4.31,49.97h-2.235l-6.12-53.27,3.406-7.025Z" transform="translate(-1056.207 -196.605)" fill="#fcf9ce"/>
      <path id="Path_33" data-name="Path 33" d="M1119.883,352.476l-6.918,52.418h-2.608l-4.257-50.023,9.579-10.271Z" transform="translate(-1035.856 -196.605)" fill="#fcf9ce"/>
      <path id="Path_34" data-name="Path 34" d="M1044.344,328.344l4.257,50.023H974.1s2.022-51.992,10.59-59.336c6.545-5.641,35.229-20.808,48.426-27.672,3.246-1.7,5.588-2.874,6.333-3.3h0a1.183,1.183,0,0,0,.266-.16h0l4.47,40.5Z" transform="translate(-974.1 -170.078)" fill="#86cebc"/>
      <path id="Path_35" data-name="Path 35" d="M1119,396.707l6.918-52.418-4.2-7.876,8.674-9.313,8.3,9.313-3.406,7.025,6.12,53.27Z" transform="translate(-1041.891 -188.418)" fill="#86cebc"/>
      <path id="Path_36" data-name="Path 36" d="M1250.338,379.116H1165.3l4.257-49.917,4.47-39.7.958.426c.958.426,2.554,1.118,4.683,2.022l.639.266c12.665,5.641,40.763,18.519,48,25.118,9.366,8.568,17.135,33.952,19.583,47.895Z" transform="translate(-1063.552 -170.827)" fill="#86cebc"/>
      <path id="Path_37" data-name="Path 37" d="M1162.431,275.1v7.61l-4.47,39.7-9.26-10.324-8.3-9.313Z" transform="translate(-1051.903 -164.09)" fill="#a37474"/>
      <path id="Path_38" data-name="Path 38" d="M1120.329,302.772l-8.674,9.313-9.579,10.271-.107.053-4.47-40.5v-.053l1.65-6.758Z" transform="translate(-1031.833 -164.09)" fill="#a37474"/>
      <path id="Path_39" data-name="Path 39" d="M1119,396.707l6.918-52.418-4.2-7.876,8.674-9.313,8.3,9.313-3.406,7.025,6.12,53.27Z" transform="translate(-1041.891 -188.418)" fill="#723138"/>
      <path id="Path_40" data-name="Path 40" d="M1066.789,199.151a19.9,19.9,0,0,1-6.812-7.291h0a11.976,11.976,0,0,1-1.277-5.215v-.692h0a6.772,6.772,0,0,1,3.672-5.854l.106.16C1063.436,187.71,1064.767,194.628,1066.789,199.151Z" transform="translate(-1013.68 -119.645)" fill="#f6c49f"/>
      <path id="Path_41" data-name="Path 41" d="M1216.73,193.469h0c-.426.745-.9,1.384-1.33,2.022a96.938,96.938,0,0,0,.266-11.974l.851-1.118a6.765,6.765,0,0,1,2.288,4.523C1218.965,189.052,1217.954,191.447,1216.73,193.469Z" transform="translate(-1086.992 -120.721)" fill="#f6c49f"/>
      <path id="Path_42" data-name="Path 42" d="M1073.825,215.9c1.809,3.991,2.076,8.461,2.182,12.719A26.6,26.6,0,0,1,1073.825,215.9Z" transform="translate(-1020.717 -136.394)" fill="none"/>
      <path id="Path_43" data-name="Path 43" d="M1143.217,242.443v8.94s-11.016,4.47-17.188,5.162-11.707-5.162-11.707-5.162c-2.129-1.863,1.384-12.027,3.778-12.027s8.249-2.395,10.643-2.767C1131.191,236.27,1143.217,242.443,1143.217,242.443Z" transform="translate(-1039.395 -146.068)" fill="none"/>
      <path id="Path_44" data-name="Path 44" d="M1145.14,161.5s1.011,12.772-5.535,21.02-9.313,10.324-9.313,10.324-.319-8.621-3.778-11.708-13.41-5.481-13.41-5.481l-2.821,2.075-1.7-2.395s-13.091,4.843-14.474,6.546-1.7,11.016-1.7,11.016-8.248-4.47-11.015-11.016-5.588-20.329-5.588-20.329,3.885-39.167,14.581-33.313c0,0,3.459,2.767,12.719,2.767,9.313,0,20.647-10,25.118-10s12.719,13.41,11.335,19.264c-1.33,5.694,5.907,12.4,6.279,12.719h0v.053A40.986,40.986,0,0,1,1145.14,161.5Z" transform="translate(-1021.68 -91.996)" fill="none"/>
      <path id="Path_45" data-name="Path 45" d="M1145.636,141.129c-.372-.319-7.61-7.025-6.279-12.719,1.384-5.854-6.865-19.264-11.335-19.264s-15.8,10-25.117,10-12.719-2.767-12.719-2.767C1079.543,110.53,1075.6,149.7,1075.6,149.7a101.819,101.819,0,0,1,0-18.679h0a2.341,2.341,0,0,1,.106-.532c.053-.319.106-.692.16-1.064v-.053c1.49-7.61,6.758-12.612,10.271-16.125,3.725-3.725,1.384-8.3,12.612-12.612,53.322-20.382,38.741,29.854,43.849,32.2C1144.891,134,1145.583,137.564,1145.636,141.129Z" transform="translate(-1021.379 -80.196)" fill="none"/>
      <path id="Path_46" data-name="Path 46" d="M1120.392,71.714c-16.5-5.481-22.723-6.865-36.453-3.087-13.783,3.778-21.339,16.444-21.339,25.278a302.231,302.231,0,0,0,1.809,33.26c.9,7.45,2.235,14.368,4.257,18.892h0c1.809,3.991,2.075,8.461,2.182,12.719a23.2,23.2,0,0,0,6.28,8.249c2.5,2.129,5,4.151,7.45,6.013,7.291,5.588,14.1,9.685,19.583,9.685,4.2,0,12.346-4.683,19.317-9.632,5.162-3.672,9.632-7.5,11.335-9.739,4.044-5.268,6.439-18.945,6.439-18.945a31.255,31.255,0,0,0,2.661-3.14,96.889,96.889,0,0,0,.266-11.974,79.21,79.21,0,0,0-.745-8.036s0-28.9,2.075-29.588C1147.532,90.979,1136.889,77.2,1120.392,71.714Z" transform="translate(-1015.505 -66.498)" fill="#625144"/>
      <path id="Path_47" data-name="Path 47" d="M1145.985,152.93h0v.106l-.745,8.461s1.011,12.772-5.534,21.02-9.313,10.324-9.313,10.324-.319-8.621-3.778-11.708-13.41-5.481-13.41-5.481l-2.82,2.075-1.7-2.395s-13.091,4.843-14.474,6.546-1.7,11.016-1.7,11.016-8.248-4.47-11.016-11.016-5.588-20.329-5.588-20.329,3.885-39.167,14.581-33.313c0,0,3.459,2.767,12.718,2.767,9.313,0,20.648-10,25.118-10s12.718,13.411,11.335,19.264c-1.331,5.641,5.96,12.346,6.333,12.665Z" transform="translate(-1021.727 -91.996)" fill="#f6c49f"/>
      <path id="Path_48" data-name="Path 48" d="M1143.217,242.443v8.94s-11.016,4.47-17.188,5.162-11.707-5.162-11.707-5.162c-2.129-1.863,1.384-12.027,3.778-12.027s8.249-2.395,10.643-2.767C1131.191,236.27,1143.217,242.443,1143.217,242.443Z" transform="translate(-1039.395 -146.068)" fill="#f6c49f"/>
      <path id="Path_49" data-name="Path 49" d="M1195.367,333.836l-18.413,45.234H1165.3l4.31-49.97,4.47-39.7.958.426,4.63,2.022.692.266,13.41,20.329L1180.36,329.1Z" transform="translate(-1063.552 -170.78)" fill="#5f5e5b"/>
      <path id="Path_50" data-name="Path 50" d="M1087.667,378.427h-11.654v-.106L1057.6,332.715l15.007-4.736-13.464-16.816,13.038-19.9.426-.692,5.907-2.608h.053l.266-.106.053-.053,4.47,40.178.053.319,4.257,50.023Z" transform="translate(-1013.165 -170.031)" fill="#5f5e5b"/>
    </g>
  </g>
</svg>
