<svg xmlns="http://www.w3.org/2000/svg" xmlns:xlink="http://www.w3.org/1999/xlink" width="524.765" height="300.865" viewBox="0 0 524.765 300.865">
  <defs>
    <filter id="Background" x="0" y="0" width="524.765" height="300.865" filterUnits="userSpaceOnUse">
      <feOffset dy="3" input="SourceAlpha"/>
      <feGaussianBlur stdDeviation="3" result="blur"/>
      <feFlood flood-opacity="0.502"/>
      <feComposite operator="in" in2="blur"/>
      <feComposite in="SourceGraphic"/>
    </filter>
  </defs>
  <g id="PlayerAvatarsIcon" transform="translate(-293 -1240)">
    <g transform="matrix(1, 0, 0, 1, 293, 1240)" filter="url(#Background)">
      <ellipse id="Background-2" data-name="Background" cx="253.383" cy="141.433" rx="253.383" ry="141.433" transform="translate(9 6)" fill="#49655c"/>
    </g>
    <g id="Group_39" data-name="Group 39" transform="translate(367.278 1299.44)">
      <g id="Group_3" data-name="Group 3" transform="translate(41.319)">
        <path id="Path_60" data-name="Path 60" d="M209.98,582.977c-4.638,2.811-9.51.562-14.569-2.108s-20.285-4.872-25.859-1.78-3.56,11.993-6.652,15.553-7.121,12.7-5.762,13.773c1.312,1.124.468,8.011-.937,8.948a13.955,13.955,0,0,0,1.827,1.359s-1.359,10.54,7.121,17.661c2.108,1.78,4.216,3.514,6.277,5.059,6.137,4.731,11.9,8.151,16.49,8.151,3.514,0,10.4-3.935,16.256-8.1,4.31-3.092,8.1-6.324,9.557-8.2,3.42-4.4,5.434-15.975,5.434-15.975s-.328-15.647-4.076-21.222C211.339,590.566,209.98,582.977,209.98,582.977Z" transform="translate(-151.234 -554.015)" fill="#f6c49f"/>
        <path id="Path_61" data-name="Path 61" d="M145.6,636.781c0,3.888,2.436,6.886,4.4,8.667-.8-2.2-1.031-10.494-1.359-14.148A5.8,5.8,0,0,0,145.6,636.781Z" transform="translate(-145.6 -582.568)" fill="#f6c49f"/>
        <path id="Path_62" data-name="Path 62" d="M292.942,632c-1.077,7.964-2.342,14.335-2.342,14.335s5.434-5.434,5.106-9.838A5.8,5.8,0,0,0,292.942,632Z" transform="translate(-222.672 -582.94)" fill="#f6c49f"/>
        <path id="Path_63" data-name="Path 63" d="M155.562,662.015h0A5.627,5.627,0,0,1,155,661.5C155.187,661.969,155.328,662.156,155.562,662.015Z" transform="translate(-150.596 -598.62)" fill="#625242"/>
        <path id="Path_64" data-name="Path 64" d="M219.353,547.713c-3.841-9.369-17.193-20.847-34.151-20.425s-26.75,10.634-30.544,17.474-3,17.38-3,18.083c0,.656-.609,8.9-.094,12.227q.07.422.141.984c.375,3.654.609,11.946,1.359,14.148a4.967,4.967,0,0,0,.562.469c1.359-.937,2.249-7.823.937-8.948s2.67-10.213,5.762-13.773,1.124-12.461,6.652-15.553,20.8-.89,25.86,1.78,9.885,4.872,14.569,2.108c0,0,1.359,7.589,5.106,13.211s4.076,21.222,4.076,21.222,1.265-6.371,2.342-14.335C220.336,565.983,221.508,553.006,219.353,547.713Z" transform="translate(-148.661 -527.276)" fill="#625242"/>
      </g>
      <path id="Path_65" data-name="Path 65" d="M202.345,719.147c-4.685,0-10.494-3.513-16.771-8.339-.609-.468-1.265-.984-1.874-1.452v1.921s14.195,12.274,19.957,10.681,18.223-10.868,18.223-10.868V708.7c-.937.7-1.921,1.452-2.9,2.155C212.932,715.118,205.905,719.147,202.345,719.147Z" transform="translate(-124.532 -623.709)" fill="#ae8d6e"/>
      <path id="Path_66" data-name="Path 66" d="M220.345,717.454v6.7c-23.189,22.018-38.414.843-39.445-.609l3.935,35.229.047.281-.047.047L180.9,723.45h0l1.312-5.434v-4.029s8.1,7.027,14.569,9.744c2.061.89,3.982,1.312,5.387.937a21.139,21.139,0,0,0,2.155-.8c6.231-2.764,16.068-10.072,16.068-10.072l-.094,3.841Z" transform="translate(-123.044 -626.419)" fill="#f6c49f"/>
      <path id="Path_67" data-name="Path 67" d="M221.833,814.04l-2.155-12.274c-2.155-12.274-8.995-34.62-17.24-42.162-6.324-5.809-31.06-17.146-42.256-22.112l-.562-.234c-1.827-.8-3.279-1.452-4.123-1.78l-.843-.375c-23.189,22.018-38.415.843-39.445-.609V734.4h-.047a2.423,2.423,0,0,0-.234.141h0l-5.2,2.3-.375.609c-11.618,6.043-36.869,19.394-42.631,24.36C59.18,768.27,57.4,814.04,57.4,814.04h55.279l.047.094h10.213v-.094ZM136.15,751.733l-.8,1.031-.047-.047Z" transform="translate(-57.4 -637.369)" fill="#878cc5"/>
      <path id="Path_68" data-name="Path 68" d="M220.292,735.1c-23.189,22.018-38.414.843-39.445-.609a.145.145,0,0,1-.047-.094h.047l15.834.281,7.542.141Z" transform="translate(-122.991 -637.369)" fill="#f6c49f"/>
    </g>
    <g id="Group_40" data-name="Group 40" transform="translate(578.914 1304.015)">
      <path id="Path_21" data-name="Path 21" d="M657.5,749.647v5.335l18.745,25.45c20.507-23.688,20.947-24.912,20.947-24.912l.147-6.02s-13.019,9.691-19.039,11.355C672.33,762.47,657.5,749.647,657.5,749.647Z" transform="translate(-594.712 -656.873)" fill="#f6c49f"/>
      <path id="Path_22" data-name="Path 22" d="M676.979,755.214c-4.894,0-10.963-3.671-17.521-8.712-.636-.49-1.321-1.028-1.958-1.517v2.007s14.83,12.823,20.849,11.159S697.388,746.8,697.388,746.8v-2.5c-.979.734-2.007,1.517-3.034,2.251C688.089,751.005,680.748,755.214,676.979,755.214Z" transform="translate(-594.712 -654.218)" fill="#ae8d6e"/>
      <g id="Group_1" data-name="Group 1" transform="translate(43.32 0)">
        <path id="Path_23" data-name="Path 23" d="M639.393,659.085V652.87H674s-2.79,7.146-3.72,9.984c-.294.93,2.4,2.985,6.411,5.335,4.6-4.258,8.859-8.418,10.18-10.474,3.23-5.041,6.02-18.745,5.384-24.716h0l-.2-10.865s.44-17.913,0-24.324-6.02-10.082-6.02-10.082l-2.007-8.222c-2.007-8.222-11.257-18.3-22.514-19.185-11.257-.93-16.494,6.852-16.494,6.852l-2.4-1.811c-2.4-1.86-13.263,5.922-20.213,25.107-5.286,14.683-5.726,21.339-3.181,36.168h0c.294,1.811.685,3.72,1.077,5.775h0c.587,3.132,1.321,6.656,2.1,10.62a51.4,51.4,0,0,0,11.648,23.835c2.692-1.077,4.454-1.86,4.454-1.86Z" transform="translate(-617.723 -560.242)" fill="#bb9c40"/>
      </g>
      <path id="Path_24" data-name="Path 24" d="M693.771,643.66h0a28.09,28.09,0,0,1-3.426,4.454s-2.1,11.844-5.579,16.347c-1.468,1.909-5.335,5.237-9.788,8.369-6.02,4.307-13.068,8.32-16.69,8.32-4.7,0-10.572-3.524-16.885-8.369-2.1-1.615-4.258-3.377-6.46-5.188-8.712-7.292-7.292-18.109-7.292-18.109a17.221,17.221,0,0,1-5.873-6.314h0a10.349,10.349,0,0,1-1.077-4.5v-.587h0a5.79,5.79,0,0,1,3.181-5.041l4.65,7.782a86.851,86.851,0,0,1,0-16.1h0c0-.147.049-.294.049-.44l.147-.881v-.049c1.272-6.558,5.873-10.865,8.859-13.9,3.23-3.23.636-9.054,10.865-10.865s9.642,8.467,19.724,22.66,13.7,3.132,18.109,5.139c4.454,2.007,2.007,14.487,2.007,14.487l5.188-6.754a6.025,6.025,0,0,1,1.958,3.915C695.729,639.891,694.848,641.947,693.771,643.66Z" transform="translate(-575.922 -579.713)" fill="#f6c49f"/>
      <path id="Path_25" data-name="Path 25" d="M711.657,760.8,723.8,773.868l-15.613,23.786L695.8,785.271Z" transform="translate(-614.267 -662.642)" fill="#fff"/>
      <path id="Path_26" data-name="Path 26" d="M692.2,813v42.727h4.209V813.347l-2.447-2.447Z" transform="translate(-612.429 -688.222)" fill="#fff"/>
      <path id="Path_27" data-name="Path 27" d="M726.348,787.5s17.864,9.642,28,11.453c10.18,1.811,21.437,5.579,24.08,22.416s2.154,22.416,2.154,22.416H700.8V801.4l9.935,9.935Z" transform="translate(-616.819 -676.275)" fill="#278086"/>
      <path id="Path_28" data-name="Path 28" d="M664.037,791.116l3.426-4.111-16.689-22.9L640.3,775.7l15.466,23.639Z" transform="translate(-585.93 -664.327)" fill="#fff"/>
      <path id="Path_29" data-name="Path 29" d="M599.046,811.235,583.581,787.6l-.1-.2s-17.864,9.642-28,11.453c-10.18,1.811-21.437,5.579-24.08,22.416-2.692,16.787-2.154,22.416-2.154,22.416h79.776V801.3l-1.664,1.664Z" transform="translate(-529.21 -676.224)" fill="#278086"/>
    </g>
    <g id="Group_41" data-name="Group 41" transform="translate(460.168 1283.352)">
      <g id="Group_2" data-name="Group 2" transform="translate(35.122)">
        <path id="Path_51" data-name="Path 51" d="M1146.574,580.43l-7.764-.93s0-4.1-3.663-4.1-.93,7.327-4.593,6.4-10.006-4.484-13.506.93c0,0-4.757,11.428-16.622,11.865l-11.865.437s-2.3,8.256-4.593,8.694c-2.242.437,2.242,13.177,0,16.9l-2.242,3.718s-1.586,12.521,8.475,21c2.515,2.132,5.03,4.156,7.491,6.015,7.327,5.632,14.107,9.733,19.575,9.733,4.21,0,12.357-4.7,19.356-9.678,5.14-3.663,9.624-7.491,11.319-9.733,4.046-5.249,6.452-18.973,6.452-18.973l-2.788-1.2C1151.6,621.549,1154.339,581.36,1146.574,580.43Z" transform="translate(-1061.512 -547.276)" fill="#f6c49f"/>
        <path id="Path_52" data-name="Path 52" d="M1217.061,630.4a92.127,92.127,0,0,1-1.148,10.115l-1.312,7.108s6.452-6.452,6.069-11.7A7.083,7.083,0,0,0,1217.061,630.4Z" transform="translate(-1121.773 -572.203)" fill="#f6c49f"/>
        <path id="Path_53" data-name="Path 53" d="M1067,636.933c0,7.655,8.093,12.521,8.093,12.521s-3.663-10.5-4.866-18.755A6.792,6.792,0,0,0,1067,636.933Z" transform="translate(-1054.879 -572.339)" fill="#f6c49f"/>
        <path id="Path_54" data-name="Path 54" d="M1134.926,537c-4.1-4.593-8.2-4.046-8.2-4.046a75.641,75.641,0,0,0-24.223-8.694c-13.724-2.3-30.62,9.569-37.893,12.74-7.327,3.171-18.755,0-18.755,0a44.528,44.528,0,0,0,0,19.247c2.3,10.936,15.529,11.865,15.529,11.865l-1.367,7.327a22.865,22.865,0,0,0,.164,6.889c1.2,8.256,4.866,18.755,4.866,18.755l2.242-3.718c2.242-3.718-2.242-16.458,0-16.9s4.593-8.694,4.593-8.694l11.865-.437c11.865-.437,16.622-11.865,16.622-11.865,3.554-5.413,9.842-1.8,13.506-.93,3.663.93.929-6.4,4.593-6.4s3.664,4.1,3.664,4.1l7.765.93c7.764.93,5.03,41.118,5.03,41.118l2.789,1.2,1.312-7.108c.492-2.57.82-6.233,1.148-10.116.492-6.835.711-14.654.711-19.684C1140.832,554.6,1139.027,541.59,1134.926,537Z" transform="translate(-1044.833 -523.964)" fill="#343434"/>
      </g>
      <path id="Path_55" data-name="Path 55" d="M1106.8,715.019v5.96l21.434,27.011,22.911-26.464.164-6.725s-14.545,10.826-21.27,12.685C1123.368,729.344,1106.8,715.019,1106.8,715.019Z" transform="translate(-1037.795 -610.454)" fill="#f6c49f"/>
      <path id="Path_56" data-name="Path 56" d="M1128.563,721.893c-5.468,0-12.248-4.1-19.575-9.733-.711-.547-1.476-1.148-2.187-1.7v2.242s16.568,14.326,23.293,12.467,21.27-12.685,21.27-12.685V709.7c-1.094.82-2.242,1.7-3.39,2.515C1140.975,717.246,1132.773,721.893,1128.563,721.893Z" transform="translate(-1037.795 -608.143)" fill="#ae8d6e"/>
      <path id="Path_57" data-name="Path 57" d="M1169.537,722.7v7.764l-4.593,40.79-9.514-10.608-8.53-9.569Z" transform="translate(-1055.969 -614.034)" fill="#e3ddf5"/>
      <path id="Path_58" data-name="Path 58" d="M1127.457,751.078l-8.913,9.569L1108.7,771.2l-.109.055L1104,729.644h0l1.7-6.944Z" transform="translate(-1036.526 -614.034)" fill="#e3ddf5"/>
      <path id="Path_59" data-name="Path 59" d="M1170.008,813.982c-2.515-14.326-10.5-40.407-20.122-49.211-7.381-6.78-36.252-20.012-49.32-25.808l-.656-.273c-2.133-.93-3.828-1.7-4.812-2.078l-.984-.437-4.593,40.79-9.514-10.662-8.53-9.569-8.913,9.569-9.842,10.553-.055-.328-4.593-41.228h-.055a2.847,2.847,0,0,0-.273.164h0l-6.069,2.679-.437.711c-13.56,7.054-43.032,22.637-49.758,28.433-8.8,7.546-10.881,60.966-10.881,60.966h64.521l.055.109h11.92v-.109h115.427C1172.524,828.308,1172.524,828.308,1170.008,813.982Z" transform="translate(-980.6 -619.745)" fill="#9ce49f"/>
    </g>
  </g>
</svg>
