<svg xmlns="http://www.w3.org/2000/svg" width="27.915" height="23.186" viewBox="0 0 27.915 23.186">
  <path id="Back" d="M26.345,51.078l.044.01H7.71L13.582,45.2a1.542,1.542,0,0,0,0-2.168l-.914-.914a1.528,1.528,0,0,0-2.157,0L.445,52.184a1.539,1.539,0,0,0,0,2.165L10.511,64.415a1.53,1.53,0,0,0,2.157,0l.914-.914a1.512,1.512,0,0,0,.445-1.078,1.467,1.467,0,0,0-.445-1.058L7.644,55.446H26.366a1.582,1.582,0,0,0,1.548-1.566V52.587A1.551,1.551,0,0,0,26.345,51.078Z" transform="translate(0 -41.674)" fill="#fff"/>
</svg>
