<svg xmlns="http://www.w3.org/2000/svg" width="362.455" height="101.945" viewBox="0 0 362.455 101.945">
  <g id="CompanyLogo" transform="translate(-48.801 -265.116)">
    <g id="Group_55" data-name="Group 55" transform="translate(188.748 294.773)">
      <path id="Path_383" data-name="Path 383" d="M147.114,281.419v4.024h-7.955v17.94h-5.472v-17.94h-7.955v-4.024Z" transform="translate(-125.732 -281.419)" fill="#f0750f"/>
      <path id="Path_384" data-name="Path 384" d="M143.33,285.476v4.244h.062q2.027-4.56,4.733-4.559a5.547,5.547,0,0,1,3.1,1.352l-1.288,4.135a5.712,5.712,0,0,0-2.767-1.1,3.2,3.2,0,0,0-2.729,2.006,10.17,10.17,0,0,0-1.108,2.339v6.425h-4.67V285.476Z" transform="translate(-115.142 -278.354)" fill="#f0750f"/>
      <path id="Path_385" data-name="Path 385" d="M162.755,295.71v2.942a10.941,10.941,0,0,1-6.62,1.948,9.019,9.019,0,0,1-6.26-2.1,7.111,7.111,0,0,1-2.341-5.563,7.536,7.536,0,0,1,2.2-5.587,7.627,7.627,0,0,1,5.614-2.188,7.415,7.415,0,0,1,5.619,2.3,8.117,8.117,0,0,1,2.052,6.17H152.36a4.254,4.254,0,0,0,1.432,3.109,5.185,5.185,0,0,0,3.46,1.09A9.384,9.384,0,0,0,162.755,295.71Zm-10.3-4.528H158.9q-.379-3.239-3.223-3.238Q152.8,287.944,152.455,291.182Z" transform="translate(-107.873 -278.354)" fill="#f0750f"/>
      <path id="Path_386" data-name="Path 386" d="M175.024,296.652v2.6a8.768,8.768,0,0,1-4.371,1.352q-2.2,0-2.61-1.666a8.6,8.6,0,0,1-4.89,1.666,4.22,4.22,0,0,1-2.94-1.1A3.333,3.333,0,0,1,159,296.962a4.109,4.109,0,0,1,1.252-3.125q1.25-1.187,7.569-3.063.158-2.483-2.578-2.483a7.641,7.641,0,0,0-5.472,2.483v-3.8a11.982,11.982,0,0,1,6.431-1.808q6.287,0,6.289,4.517v6.771q0,1.04.771,1.039A3.685,3.685,0,0,0,175.024,296.652Zm-7.2.062v-3.6a13.06,13.06,0,0,0-3.214,1.475,2,2,0,0,0-.873,1.664,1.564,1.564,0,0,0,.44,1.111,1.413,1.413,0,0,0,1.07.466A3.87,3.87,0,0,0,167.822,296.714Z" transform="translate(-98.481 -278.354)" fill="#f0750f"/>
      <path id="Path_387" data-name="Path 387" d="M181.179,286.262v3.316a9.63,9.63,0,0,0-4.952-1.634q-1.684,0-1.685,1.146a.8.8,0,0,0,.357.591,16.383,16.383,0,0,0,2.71,1.228,7.967,7.967,0,0,1,3.334,2.168,4.24,4.24,0,0,1,.973,2.69,4.313,4.313,0,0,1-1.572,3.573,7.019,7.019,0,0,1-4.48,1.259,12.461,12.461,0,0,1-5.315-1.084v-3.287a12.439,12.439,0,0,0,4.8,1.259q2.262,0,2.263-1.1a1.084,1.084,0,0,0-.418-.8,13.206,13.206,0,0,0-2.807-1.312,7.737,7.737,0,0,1-3.269-2.05,4.025,4.025,0,0,1,.811-5.792,7.2,7.2,0,0,1,4.457-1.275A10.309,10.309,0,0,1,181.179,286.262Z" transform="translate(-89.279 -278.354)" fill="#f0750f"/>
      <path id="Path_388" data-name="Path 388" d="M190.2,300.176v-2.123a6.164,6.164,0,0,1-4.8,2.4,5.345,5.345,0,0,1-3.931-1.494,5.554,5.554,0,0,1-1.508-4.135v-9.5h4.67v9.17q0,2.824,2.341,2.825a2.944,2.944,0,0,0,2.258-1.028q.936-1.029.935-1.515v-9.452h4.7v14.842Z" transform="translate(-81.308 -278.212)" fill="#f0750f"/>
      <path id="Path_389" data-name="Path 389" d="M196.795,285.476v4.244h.064q2.027-4.56,4.73-4.559a5.547,5.547,0,0,1,3.1,1.352l-1.288,4.135a5.71,5.71,0,0,0-2.769-1.1,3.2,3.2,0,0,0-2.727,2.006,10.171,10.171,0,0,0-1.108,2.339v6.425h-4.67V285.476Z" transform="translate(-71.348 -278.354)" fill="#f0750f"/>
      <path id="Path_390" data-name="Path 390" d="M216.218,295.71v2.942A10.931,10.931,0,0,1,209.6,300.6a9.011,9.011,0,0,1-6.258-2.1A7.113,7.113,0,0,1,201,292.936a7.543,7.543,0,0,1,2.2-5.587,7.63,7.63,0,0,1,5.614-2.188,7.422,7.422,0,0,1,5.621,2.3,8.124,8.124,0,0,1,2.05,6.17H205.827a4.259,4.259,0,0,0,1.43,3.109,5.186,5.186,0,0,0,3.458,1.09A9.371,9.371,0,0,0,216.218,295.71Zm-10.3-4.528h6.445q-.377-3.239-3.224-3.238Q206.267,287.944,205.922,291.182Z" transform="translate(-64.079 -278.354)" fill="#f0750f"/>
      <path id="Path_391" data-name="Path 391" d="M225.489,281.419v21.964h-5.47V281.419Z" transform="translate(-48.499 -281.419)" fill="#f0750f"/>
      <path id="Path_392" data-name="Path 392" d="M231.964,285.476v2.107a6.181,6.181,0,0,1,4.826-2.421,5.373,5.373,0,0,1,3.862,1.479,5.583,5.583,0,0,1,1.546,4.235v9.443h-4.67v-9.052q0-2.977-2.31-2.976-1.651,0-3.254,2.452v9.576h-4.67V285.476Z" transform="translate(-42.54 -278.354)" fill="#f0750f"/>
      <path id="Path_393" data-name="Path 393" d="M252.646,296.261v3.347a14.81,14.81,0,0,1-5.015.991,9.011,9.011,0,0,1-6.258-2.1,7.107,7.107,0,0,1-2.343-5.563,7.283,7.283,0,0,1,2.365-5.579,8.517,8.517,0,0,1,6.032-2.2,14.424,14.424,0,0,1,5,.975v3.475a8.305,8.305,0,0,0-3.806-.99,4.733,4.733,0,0,0-3.349,1.164,4.044,4.044,0,0,0-1.257,3.118,4.254,4.254,0,0,0,1.226,3.174,4.4,4.4,0,0,0,3.224,1.206A12.98,12.98,0,0,0,252.646,296.261Z" transform="translate(-32.927 -278.354)" fill="#f0750f"/>
    </g>
    <g id="Group_57" data-name="Group 57" transform="translate(193.381 338.065)">
      <g id="Group_56" data-name="Group 56" transform="translate(0)">
        <path id="Path_394" data-name="Path 394" d="M128.279,305.217h6.3a5.325,5.325,0,0,1,3.542,1.084,3.259,3.259,0,0,1,1.288,2.563,3.16,3.16,0,0,1-1.992,2.909,4.2,4.2,0,0,1,2.3,1.4,3.64,3.64,0,0,1,.8,2.339,3.993,3.993,0,0,1-1.3,3.089,5.518,5.518,0,0,1-3.838,1.19h-7.093Zm3.631,2.67v3.118h1.9a1.945,1.945,0,0,0,1.366-.449,1.457,1.457,0,0,0,.491-1.124,1.42,1.42,0,0,0-.491-1.108,1.985,1.985,0,0,0-1.366-.437Zm0,5.788v3.442h2.043a4.07,4.07,0,0,0,2.087-.4,1.514,1.514,0,0,0,.635-1.392,1.417,1.417,0,0,0-.6-1.206,2.684,2.684,0,0,0-1.617-.442Z" transform="translate(-128.279 -305.217)" fill="#933700"/>
        <path id="Path_395" data-name="Path 395" d="M142.762,307.7a5.9,5.9,0,0,1,3.927,1.357,4.673,4.673,0,0,1,1.612,3.78,4.59,4.59,0,0,1-1.637,3.769,5.979,5.979,0,0,1-3.9,1.337,5.715,5.715,0,0,1-4.009-1.424,4.789,4.789,0,0,1-1.559-3.7,4.7,4.7,0,0,1,1.59-3.716A5.8,5.8,0,0,1,142.762,307.7Zm0,8.406q2.221,0,2.223-3.353,0-3.206-2.223-3.207a1.927,1.927,0,0,0-1.663.846,4.163,4.163,0,0,0-.6,2.425Q140.5,316.107,142.762,316.105Z" transform="translate(-120.977 -303.184)" fill="#933700"/>
        <path id="Path_396" data-name="Path 396" d="M148.759,307.91v2.814h.042q1.343-3.023,3.138-3.025a3.69,3.69,0,0,1,2.056.9l-.855,2.745a3.784,3.784,0,0,0-1.837-.731,2.118,2.118,0,0,0-1.808,1.332,6.755,6.755,0,0,0-.735,1.552v4.262h-3.1V307.91Z" transform="translate(-114.041 -303.184)" fill="#933700"/>
        <path id="Path_397" data-name="Path 397" d="M155.15,307.91v1.4a4.1,4.1,0,0,1,3.2-1.606,3.558,3.558,0,0,1,2.56.982,3.705,3.705,0,0,1,1.028,2.809v6.265h-3.1v-6q0-1.976-1.534-1.976-1.094,0-2.159,1.628v6.352h-3.1V307.91Z" transform="translate(-108.806 -303.184)" fill="#933700"/>
        <path id="Path_398" data-name="Path 398" d="M176.555,305.217v2.67h-5.277v11.9h-3.629v-11.9h-5.277v-2.67Z" transform="translate(-100.353 -305.217)" fill="#933700"/>
        <path id="Path_399" data-name="Path 399" d="M175.731,307.7a5.9,5.9,0,0,1,3.927,1.357,4.678,4.678,0,0,1,1.612,3.78,4.592,4.592,0,0,1-1.639,3.769,5.974,5.974,0,0,1-3.9,1.337,5.709,5.709,0,0,1-4.009-1.424,4.784,4.784,0,0,1-1.561-3.7,4.7,4.7,0,0,1,1.59-3.716A5.809,5.809,0,0,1,175.731,307.7Zm0,8.406q2.221,0,2.221-3.353,0-3.206-2.221-3.207a1.932,1.932,0,0,0-1.665.846,4.163,4.163,0,0,0-.6,2.425Q173.468,316.107,175.731,316.105Z" transform="translate(-93.973 -303.184)" fill="#933700"/>
        <path id="Path_400" data-name="Path 400" d="M197.738,305.217v14.571h-3.629v-5.894h-7.26v5.894H183.22V305.217h3.629v5.85h7.26v-5.85Z" transform="translate(-83.276 -305.217)" fill="#933700"/>
        <path id="Path_401" data-name="Path 401" d="M200.764,317.66v-1.41a4.084,4.084,0,0,1-3.18,1.6,3.543,3.543,0,0,1-2.609-.991,3.685,3.685,0,0,1-1-2.743v-6.3h3.1V313.9q0,1.877,1.554,1.875a1.954,1.954,0,0,0,1.5-.682q.619-.682.62-1.006v-6.269h3.118v9.845Z" transform="translate(-74.466 -303.089)" fill="#933700"/>
        <path id="Path_402" data-name="Path 402" d="M205.093,307.91v1.4a4.1,4.1,0,0,1,3.2-1.606,3.56,3.56,0,0,1,2.561.982,3.7,3.7,0,0,1,1.028,2.809v6.265h-3.1v-6q0-1.976-1.534-1.976-1.094,0-2.157,1.628v6.352h-3.1V307.91Z" transform="translate(-67.897 -303.184)" fill="#933700"/>
        <path id="Path_403" data-name="Path 403" d="M217.546,309.21v2.116h-3.587v4.057a1.607,1.607,0,0,0,.4,1.153,1.455,1.455,0,0,0,1.11.424,4.583,4.583,0,0,0,2.076-.575v2.241a7.432,7.432,0,0,1-2.867.617,3.967,3.967,0,0,1-2.818-.939,3.6,3.6,0,0,1-1-2.754v-4.224h-1.408v-.6l4.12-4.61h.386v3.1Z" transform="translate(-61.788 -304.484)" fill="#933700"/>
      </g>
    </g>
    <path id="Path_404" data-name="Path 404" d="M107.943,265.116l-18.02,88.168L48.8,367.061Z" transform="translate(0)" fill="#f0a150"/>
    <path id="Path_405" data-name="Path 405" d="M85.1,265.116l58.452,101.945L76.686,306.293Z" transform="translate(22.841)" fill="#933700"/>
    <path id="Path_406" data-name="Path 406" d="M166.394,334.148,134.912,305.3,48.8,334.148Z" transform="translate(0 32.913)" fill="#f0750f"/>
    <rect id="Rectangle_32" data-name="Rectangle 32" width="221.866" height="1.819" transform="translate(189.389 326.107)" fill="#f0a150"/>
  </g>
</svg>
