<svg xmlns="http://www.w3.org/2000/svg" xmlns:xlink="http://www.w3.org/1999/xlink" width="65.162" height="65.162" viewBox="0 0 65.162 65.162">
  <defs>
    <filter id="Path_72" x="0" y="0" width="65.162" height="65.162" filterUnits="userSpaceOnUse">
      <feOffset dy="3" input="SourceAlpha"/>
      <feGaussianBlur stdDeviation="3" result="blur"/>
      <feFlood flood-opacity="0.502"/>
      <feComposite operator="in" in2="blur"/>
      <feComposite in="SourceGraphic"/>
    </filter>
  </defs>
  <g id="Facebook" transform="translate(9 6)">
    <circle id="Ellipse_2" data-name="Ellipse 2" cx="23.465" cy="23.465" r="23.465" fill="#49655c"/>
    <g transform="matrix(1, 0, 0, 1, -9, -6)" filter="url(#Path_72)">
      <path id="Path_72-2" data-name="Path 72" d="M23.581,0A23.581,23.581,0,1,0,47.162,23.581,23.581,23.581,0,0,0,23.581,0Zm9,12.009H29.316c-2.558,0-3.052,1.215-3.052,3v3.932h6.1l0,6.159h-6.1V40.9H19.9V25.1H14.585V18.941H19.9V14.4c0-5.271,3.221-8.142,7.922-8.142l4.753.007v5.744Z" transform="translate(9 6)" fill="#fff"/>
    </g>
  </g>
</svg>
