<svg xmlns="http://www.w3.org/2000/svg" xmlns:xlink="http://www.w3.org/1999/xlink" width="82.881" height="82.881" viewBox="0 0 82.881 82.881">
  <defs>
    <filter id="Gmail" x="0" y="0" width="82.881" height="82.881" filterUnits="userSpaceOnUse">
      <feOffset dy="3" input="SourceAlpha"/>
      <feGaussianBlur stdDeviation="3" result="blur"/>
      <feFlood flood-opacity="0.502"/>
      <feComposite operator="in" in2="blur"/>
      <feComposite in="SourceGraphic"/>
    </filter>
  </defs>
  <g transform="matrix(1, 0, 0, 1, 0, 0)" filter="url(#Gmail)">
    <path id="Gmail-2" data-name="Gmail" d="M32.44,64.881A32.441,32.441,0,0,1,9.5,9.5,32.44,32.44,0,1,1,55.379,55.379,32.228,32.228,0,0,1,32.44,64.881Zm.3-35v0c-.12.259-.232.533-.341.837a3.027,3.027,0,0,0-.152,1.033,3.6,3.6,0,0,0,.453,1.9,15.1,15.1,0,0,0,1,1.4c-.548.033-1.226.081-2.075.149-.805.069-1.665.181-2.556.336a22.459,22.459,0,0,0-2.715.66A13.54,13.54,0,0,0,23.777,37.3a7.388,7.388,0,0,0-3.126,2.933,6.717,6.717,0,0,0-.851,2.985,5.371,5.371,0,0,0,.68,2.613,6.638,6.638,0,0,0,2.091,2.212,11.636,11.636,0,0,0,3.508,1.554,18.627,18.627,0,0,0,4.953.583,19.169,19.169,0,0,0,5.726-.783,13.2,13.2,0,0,0,4.157-2.09,9.026,9.026,0,0,0,2.529-2.949,7.241,7.241,0,0,0,.851-3.379,7.019,7.019,0,0,0-.307-2.2,6.889,6.889,0,0,0-.866-1.754,10.525,10.525,0,0,0-1.259-1.478c-.5-.491-.988-.935-1.478-1.356L38.5,32.815a9.7,9.7,0,0,1-1.053-.778,1.61,1.61,0,0,1-.574-1.3,1.959,1.959,0,0,1,.489-1.366c.334-.367.66-.707,1-1.041l1.638-1.253A8.106,8.106,0,0,0,41.4,25.626a7.5,7.5,0,0,0,.993-1.827,6.42,6.42,0,0,0,.388-2.317,6.729,6.729,0,0,0-.41-2.419,8.268,8.268,0,0,0-1-1.86,7.434,7.434,0,0,0-1.238-1.346l-1.095-.889h3.268l3.361-1.787H34.957a25.121,25.121,0,0,0-4.565.458,11.129,11.129,0,0,0-4.713,2.195,9.048,9.048,0,0,0-2.462,3.1,8.124,8.124,0,0,0-.811,3.412,7.327,7.327,0,0,0,.563,2.8,7.009,7.009,0,0,0,1.68,2.451,8.779,8.779,0,0,0,2.735,1.726,9.653,9.653,0,0,0,3.7.663c.247,0,.521-.009.838-.028.273-.015.546-.04.812-.072Zm.775,18.108a15.633,15.633,0,0,1-3.758-.419,8.815,8.815,0,0,1-2.881-1.227,6.067,6.067,0,0,1-1.831-1.874,4.594,4.594,0,0,1-.625-2.365,4.018,4.018,0,0,1,.534-2.146,5.286,5.286,0,0,1,1.262-1.467A6.09,6.09,0,0,1,27.7,37.6c.51-.213.9-.363,1.191-.458a13.428,13.428,0,0,1,1.706-.394c.608-.1,1.155-.177,1.674-.235s.971-.093,1.34-.11l.25-.009c.236-.009.406-.015.506-.015H35a1.711,1.711,0,0,1,.547.1l1.2.837.011.008,1.332.93a9.742,9.742,0,0,1,1.731,1.475,5.116,5.116,0,0,1,.915,1.443,4.321,4.321,0,0,1,.3,1.651,4.507,4.507,0,0,1-1.886,3.7A9.178,9.178,0,0,1,33.517,47.986Zm-.05-19.427a4.637,4.637,0,0,1-2.865-.89,7.876,7.876,0,0,1-2.007-2.192,9.912,9.912,0,0,1-1.187-2.8,11.291,11.291,0,0,1-.376-2.7,7.67,7.67,0,0,1,.233-1.876,4.133,4.133,0,0,1,.905-1.678,5.1,5.1,0,0,1,1.63-1.148,4.8,4.8,0,0,1,2.005-.454,4.412,4.412,0,0,1,2.775.915,8.053,8.053,0,0,1,1.99,2.244,10.846,10.846,0,0,1,1.2,2.872A11.74,11.74,0,0,1,38.16,23.7a8.973,8.973,0,0,1-.191,1.647A3.57,3.57,0,0,1,36.893,27.2a4.434,4.434,0,0,1-1.524.985A5.029,5.029,0,0,1,33.467,28.559Z" transform="translate(9 6)" fill="#fff"/>
  </g>
</svg>
