<svg xmlns="http://www.w3.org/2000/svg" xmlns:xlink="http://www.w3.org/1999/xlink" width="73.269" height="73.269" viewBox="0 0 73.269 73.269">
  <defs>
    <filter id="Path_71" x="0" y="0" width="73.269" height="73.269" filterUnits="userSpaceOnUse">
      <feOffset dy="3" input="SourceAlpha"/>
      <feGaussianBlur stdDeviation="3" result="blur"/>
      <feFlood flood-opacity="0.502"/>
      <feComposite operator="in" in2="blur"/>
      <feComposite in="SourceGraphic"/>
    </filter>
    <filter id="Ellipse_1" x="19.495" y="19.621" width="34.357" height="33.851" filterUnits="userSpaceOnUse">
      <feOffset dy="3" input="SourceAlpha"/>
      <feGaussianBlur stdDeviation="3" result="blur-2"/>
      <feFlood flood-opacity="0.502"/>
      <feComposite operator="in" in2="blur-2"/>
      <feComposite in="SourceGraphic"/>
    </filter>
    <filter id="Path_69" x="11.796" y="24.494" width="49.599" height="36.822" filterUnits="userSpaceOnUse">
      <feOffset dy="3" input="SourceAlpha"/>
      <feGaussianBlur stdDeviation="3" result="blur-3"/>
      <feFlood flood-opacity="0.502"/>
      <feComposite operator="in" in2="blur-3"/>
      <feComposite in="SourceGraphic"/>
    </filter>
    <filter id="Path_70" x="35.105" y="11.797" width="26.27" height="26.055" filterUnits="userSpaceOnUse">
      <feOffset dy="3" input="SourceAlpha"/>
      <feGaussianBlur stdDeviation="3" result="blur-4"/>
      <feFlood flood-opacity="0.502"/>
      <feComposite operator="in" in2="blur-4"/>
      <feComposite in="SourceGraphic"/>
    </filter>
  </defs>
  <g id="Instagram" transform="translate(9 6)">
    <circle id="Ellipse_3" data-name="Ellipse 3" cx="27.465" cy="27.465" r="27.465" transform="translate(0.089)" fill="#49655c"/>
    <g id="Group_10" data-name="Group 10">
      <g transform="matrix(1, 0, 0, 1, -9, -6)" filter="url(#Path_71)">
        <path id="Path_71-2" data-name="Path 71" d="M27.634,0A27.634,27.634,0,1,0,55.269,27.634,27.634,27.634,0,0,0,27.634,0ZM42.77,48H12.5a5.1,5.1,0,0,1-5.228-5.227V12.5A5.1,5.1,0,0,1,12.5,7.271H42.77A5.1,5.1,0,0,1,48,12.5V42.772A5.1,5.1,0,0,1,42.77,48Z" transform="translate(9 6)" fill="#fff"/>
      </g>
      <g transform="matrix(1, 0, 0, 1, -9, -6)" filter="url(#Ellipse_1)">
        <ellipse id="Ellipse_1-2" data-name="Ellipse 1" cx="8.179" cy="7.925" rx="8.179" ry="7.925" transform="translate(28.49 25.62)" fill="#fff"/>
      </g>
      <g transform="matrix(1, 0, 0, 1, -9, -6)" filter="url(#Path_69)">
        <path id="Path_69-2" data-name="Path 69" d="M49.4,46.815A12.466,12.466,0,0,1,36.74,59.08,12.466,12.466,0,0,1,24.081,46.815a11.911,11.911,0,0,1,.522-3.494H20.863v17.2a1.623,1.623,0,0,0,1.619,1.619h28.36a1.624,1.624,0,0,0,1.62-1.619v-17.2H48.877A11.929,11.929,0,0,1,49.4,46.815Z" transform="translate(-0.07 -12.83)" fill="#fff"/>
      </g>
      <g transform="matrix(1, 0, 0, 1, -9, -6)" filter="url(#Path_70)">
        <path id="Path_70-2" data-name="Path 70" d="M63.923,28.918h4.6a1.838,1.838,0,0,0,1.833-1.833V22.7a1.838,1.838,0,0,0-1.833-1.834h-4.6A1.838,1.838,0,0,0,62.089,22.7v4.389A1.838,1.838,0,0,0,63.923,28.918Z" transform="translate(-17.98 -3.07)" fill="#fff"/>
      </g>
    </g>
  </g>
</svg>
