<svg xmlns="http://www.w3.org/2000/svg" width="93.917" height="104.945" viewBox="0 0 93.917 104.945">
  <g id="Logo" transform="translate(-97.146 -81.289)">
    <path id="Path_129" data-name="Path 129" d="M146.844,81.289l-10.409,50.926-23.752,7.958Z" transform="translate(-1.437)" fill="#f0a150"/>
    <path id="Path_130" data-name="Path 130" d="M97.146,159.518h12.868v1.962h-5.37V176.9h-2.216V161.48H97.146Z" transform="translate(0 -7.233)" fill="#f0750f"/>
    <path id="Path_131" data-name="Path 131" d="M114.858,167.479V169.8l.11-.176q1.457-2.35,2.911-2.349a3.589,3.589,0,0,1,2.371,1.146l-1.058,1.764a2.972,2.972,0,0,0-1.94-.992,2.079,2.079,0,0,0-1.682.926,3.5,3.5,0,0,0-.712,2.194v5.3h-2.017V167.479Z" transform="translate(-1.451 -7.95)" fill="#f0750f"/>
    <path id="Path_132" data-name="Path 132" d="M133.132,172.726H126a3.31,3.31,0,0,0,.976,2.316,3.221,3.221,0,0,0,2.322.86,6.041,6.041,0,0,0,3.66-1.235v1.962a6.7,6.7,0,0,1-1.836.883,7.687,7.687,0,0,1-2.133.264,4.8,4.8,0,0,1-2.714-.7,5.057,5.057,0,0,1-1.659-1.868,5.711,5.711,0,0,1-.623-2.718,5.4,5.4,0,0,1,1.311-3.766,4.386,4.386,0,0,1,3.408-1.449,4.011,4.011,0,0,1,3.219,1.411,5.636,5.636,0,0,1,1.2,3.782Zm-7.09-1.2h5.106a2.807,2.807,0,0,0-.717-1.853,2.3,2.3,0,0,0-1.72-.651,2.477,2.477,0,0,0-1.77.651A3.219,3.219,0,0,0,126.042,171.525Z" transform="translate(-2.482 -7.95)" fill="#f0750f"/>
    <path id="Path_133" data-name="Path 133" d="M145.235,171.525v4.311c0,.345.117.518.353.518a2.422,2.422,0,0,0,1.135-.541v1.225a6.5,6.5,0,0,1-1.1.6,2.365,2.365,0,0,1-.866.161q-1.289,0-1.521-1.016a4.363,4.363,0,0,1-2.724.993,2.4,2.4,0,0,1-1.764-.7,2.374,2.374,0,0,1-.706-1.758,2.472,2.472,0,0,1,.69-1.714,4.65,4.65,0,0,1,1.958-1.2l2.568-.881v-.541a1.617,1.617,0,0,0-1.831-1.83,4.406,4.406,0,0,0-3.2,1.7v-2.194a4.163,4.163,0,0,1,3.362-1.379,3.881,3.881,0,0,1,2.636.86,2.711,2.711,0,0,1,.594.732,2.649,2.649,0,0,1,.337.916A13.659,13.659,0,0,1,145.235,171.525Zm-1.974,4.089v-3.009l-1.345.518a4.547,4.547,0,0,0-1.45.822,1.486,1.486,0,0,0-.022,2.056,1.425,1.425,0,0,0,1.042.4A2.516,2.516,0,0,0,143.261,175.615Z" transform="translate(-3.781 -7.95)" fill="#f0750f"/>
    <path id="Path_134" data-name="Path 134" d="M151.505,176.9v-2.162a9.131,9.131,0,0,0,1.737.965,4.034,4.034,0,0,0,1.493.369,1.868,1.868,0,0,0,1.081-.309.889.889,0,0,0,.452-.739.994.994,0,0,0-.291-.733,6.76,6.76,0,0,0-1.262-.843,8.924,8.924,0,0,1-2.542-1.848,2.646,2.646,0,0,1-.6-1.67,2.341,2.341,0,0,1,.909-1.907,3.592,3.592,0,0,1,2.343-.74,6.457,6.457,0,0,1,3.054.838V170.1a6.11,6.11,0,0,0-2.921-1.082,1.627,1.627,0,0,0-.943.249.764.764,0,0,0-.358.657.942.942,0,0,0,.325.673,5.526,5.526,0,0,0,1.141.771l.717.408q2.536,1.432,2.537,3.174A2.528,2.528,0,0,1,157.4,177a3.831,3.831,0,0,1-2.508.8,6.106,6.106,0,0,1-1.61-.193A10.925,10.925,0,0,1,151.505,176.9Z" transform="translate(-5.026 -7.95)" fill="#f0750f"/>
    <path id="Path_135" data-name="Path 135" d="M170.57,177.643v-1.3a4.684,4.684,0,0,1-1.461,1.089,3.808,3.808,0,0,1-1.637.389,3.416,3.416,0,0,1-1.77-.48,3.111,3.111,0,0,1-1.223-1.3,6.51,6.51,0,0,1-.414-2.728V167.5h2.007v5.781a3.981,3.981,0,0,0,.457,2.23,1.849,1.849,0,0,0,1.6.633,2.933,2.933,0,0,0,2.437-1.4V167.5h2.007v10.144Z" transform="translate(-6.187 -7.971)" fill="#f0750f"/>
    <path id="Path_136" data-name="Path 136" d="M181.206,167.479V169.8l.11-.176q1.455-2.35,2.911-2.349a3.589,3.589,0,0,1,2.37,1.146l-1.059,1.764a2.97,2.97,0,0,0-1.94-.992,2.082,2.082,0,0,0-1.682.926,3.5,3.5,0,0,0-.711,2.194v5.3h-2.017V167.479Z" transform="translate(-7.585 -7.95)" fill="#f0750f"/>
    <path id="Path_137" data-name="Path 137" d="M199.48,172.726h-7.133a3.306,3.306,0,0,0,.976,2.316,3.22,3.22,0,0,0,2.321.86,6.043,6.043,0,0,0,3.661-1.235v1.962a6.72,6.72,0,0,1-1.836.883,7.69,7.69,0,0,1-2.134.264,4.793,4.793,0,0,1-2.713-.7,5.049,5.049,0,0,1-1.659-1.868,5.711,5.711,0,0,1-.623-2.718,5.4,5.4,0,0,1,1.311-3.766,4.384,4.384,0,0,1,3.407-1.449,4.014,4.014,0,0,1,3.22,1.411,5.641,5.641,0,0,1,1.2,3.782Zm-7.09-1.2h5.1a2.8,2.8,0,0,0-.716-1.853,2.308,2.308,0,0,0-1.721-.651,2.477,2.477,0,0,0-1.77.651A3.224,3.224,0,0,0,192.39,171.525Z" transform="translate(-8.616 -7.95)" fill="#f0750f"/>
    <g id="Group_30" data-name="Group 30" transform="translate(133.615 174.569)">
      <g id="Group_29" data-name="Group 29">
        <path id="Path_138" data-name="Path 138" d="M137.33,184.072h1.651v11.533H137.33Z" transform="translate(-137.33 -184.072)" fill="#933700"/>
        <path id="Path_139" data-name="Path 139" d="M145.1,188.4v.967a3.021,3.021,0,0,1,2.287-1.115,2.51,2.51,0,0,1,1.32.368,2.392,2.392,0,0,1,.929,1.006,4.822,4.822,0,0,1,.317,2.027v4.343h-1.5v-4.326A2.953,2.953,0,0,0,148.1,190a1.36,1.36,0,0,0-1.189-.5,2.164,2.164,0,0,0-1.808,1.065v5.424h-1.536v-7.6Z" transform="translate(-137.907 -184.458)" fill="#933700"/>
        <path id="Path_140" data-name="Path 140" d="M160.437,194.215V195.7a6.306,6.306,0,0,1-2.213.421,3.646,3.646,0,0,1-3.905-3.889,4.048,4.048,0,0,1,1.032-2.889,3.556,3.556,0,0,1,2.716-1.1,4.541,4.541,0,0,1,1.053.112,6.915,6.915,0,0,1,1.151.417v1.6a4,4,0,0,0-2.113-.727,2.157,2.157,0,0,0-1.667.714,2.6,2.6,0,0,0-.653,1.821,2.454,2.454,0,0,0,.706,1.849,2.612,2.612,0,0,0,1.9.686A4.953,4.953,0,0,0,160.437,194.215Z" transform="translate(-138.901 -184.458)" fill="#933700"/>
        <path id="Path_141" data-name="Path 141" d="M165.93,194.751a.99.99,0,0,1,.719.289.95.95,0,0,1,.3.71.921.921,0,0,1-.293.693,1,1,0,0,1-.722.28.98.98,0,0,1-.71-.28.931.931,0,0,1-.29-.693.989.989,0,0,1,1-1Z" transform="translate(-139.882 -185.059)" fill="#933700"/>
      </g>
    </g>
    <path id="Path_142" data-name="Path 142" d="M149.839,81.289,183.6,140.172,145.08,105.165Z" transform="translate(-4.432)" fill="#933700"/>
    <path id="Path_143" data-name="Path 143" d="M180.606,144.473l-18.184-16.664-49.738,16.664Z" transform="translate(-1.437 -4.301)" fill="#f0750f"/>
    <rect id="Rectangle_2" data-name="Rectangle 2" width="77.645" height="1.962" transform="translate(113.418 152.285)" fill="#f0a150"/>
  </g>
</svg>
