<svg xmlns="http://www.w3.org/2000/svg" xmlns:xlink="http://www.w3.org/1999/xlink" width="65.162" height="65.162" viewBox="0 0 65.162 65.162">
  <defs>
    <filter id="Path_73" x="0" y="0" width="65.162" height="65.162" filterUnits="userSpaceOnUse">
      <feOffset dy="3" input="SourceAlpha"/>
      <feGaussianBlur stdDeviation="3" result="blur"/>
      <feFlood flood-opacity="0.502"/>
      <feComposite operator="in" in2="blur"/>
      <feComposite in="SourceGraphic"/>
    </filter>
  </defs>
  <g id="Twitter" transform="translate(9 6)">
    <circle id="Ellipse_4" data-name="Ellipse 4" cx="23.465" cy="23.465" r="23.465" transform="translate(0)" fill="#49655c"/>
    <g transform="matrix(1, 0, 0, 1, -9, -6)" filter="url(#Path_73)">
      <path id="Path_73-2" data-name="Path 73" d="M23.581,0A23.581,23.581,0,1,0,47.162,23.581,23.581,23.581,0,0,0,23.581,0Zm14.26,17.292q.017.418.017.838c0,10.073-7.665,20.492-20.492,20.492A20.412,20.412,0,0,1,6.325,35.386a.174.174,0,0,1-.07-.206.176.176,0,0,1,.185-.114,14.257,14.257,0,0,0,1.682.1A14.063,14.063,0,0,0,16.5,32.432a7.313,7.313,0,0,1-6.35-5.055.174.174,0,0,1,.2-.225,7.02,7.02,0,0,0,2.432.035A7.339,7.339,0,0,1,7.642,20.2V20.1a.175.175,0,0,1,.088-.148.172.172,0,0,1,.171,0,6.993,6.993,0,0,0,2.553.826,7.322,7.322,0,0,1-1.763-9.4.174.174,0,0,1,.137-.086.171.171,0,0,1,.149.064,20.172,20.172,0,0,0,14.364,7.384,7.4,7.4,0,0,1-.14-1.44,7.319,7.319,0,0,1,12.588-5.076,14.1,14.1,0,0,0,4.386-1.693.174.174,0,0,1,.255.2,7.3,7.3,0,0,1-2.572,3.613,14.064,14.064,0,0,0,3.3-1,.175.175,0,0,1,.216.257A14.581,14.581,0,0,1,37.841,17.292Z" transform="translate(9 6)" fill="#fff"/>
    </g>
  </g>
</svg>
